<svg width="30" height="30" viewBox="0 0 30 30" fill="none" xmlns="http://www.w3.org/2000/svg">
<g clip-path="url(#clip0_169_2281)">
<path d="M28.448 0.56828C28.1563 -0.164142 27.323 -0.193439 26.974 0.497968C25.3595 3.65617 22.4688 5.62492 19.1667 5.62492H15.0001C9.47925 5.62492 5.00008 10.664 5.00008 16.8749C5.00008 17.2851 5.04175 17.6777 5.07821 18.0761C8.40112 15.3984 13.198 13.1249 20.0001 13.1249C20.4584 13.1249 20.8334 13.5468 20.8334 14.0624C20.8334 14.578 20.4584 14.9999 20.0001 14.9999C6.90633 14.9999 1.35425 24.0292 0.12508 27.4218C-0.21867 28.3769 0.18758 29.4667 1.03654 29.8593C1.8907 30.2577 2.85945 29.7948 3.21362 28.8456C3.29175 28.6347 4.30216 26.039 6.95841 23.537C8.64591 26.1093 11.8542 28.5644 16.0678 28.0605C24.2449 27.3925 30.0001 19.1425 30.0001 9.04094C30.0001 6.09953 29.4376 3.05266 28.448 0.56828Z" fill="#9ACD32"/>
</g>
<defs>
<clipPath id="clip0_169_2281">
<rect width="30" height="30" fill="white"/>
</clipPath>
</defs>
</svg>
