<svg width="30" height="30" viewBox="0 0 30 30" fill="none" xmlns="http://www.w3.org/2000/svg">
<g clip-path="url(#clip0_201_7628)">
<path d="M19.3752 15.4179V10.1609L16.2844 8.74172C12.8578 12.8187 11.577 23.4382 3.28125 23.4382C2.41101 23.4382 1.57641 23.7839 0.961056 24.3993C0.345702 25.0146 0 25.8492 0 26.7195C0 27.5897 0.345702 28.4243 0.961056 29.0397C1.57641 29.655 2.41101 30.0007 3.28125 30.0007C15.7406 30.0007 24.999 22.8013 27.8426 17.6761L25.6717 15.4179H19.3752ZM27.0563 7.89622C28.9406 4.38997 27.9598 1.55227 26.8723 0.176489C26.8308 0.125037 26.7789 0.0829392 26.72 0.052958C26.6611 0.0229768 26.5965 0.00578993 26.5305 0.00252535C26.4645 -0.000739239 26.3985 0.00999225 26.337 0.0340155C26.2754 0.0580388 26.2196 0.0948109 26.1732 0.141918L24.8314 1.48957C24.7544 1.56784 24.7071 1.6705 24.6976 1.7799C24.688 1.8893 24.7169 1.9986 24.7793 2.08899C25.1813 2.69602 25.7783 4.14563 24.6973 6.32649C23.641 5.86476 22.5008 5.62618 21.348 5.62571C19.7074 5.62571 18.184 6.1261 16.875 6.94934L21.2502 8.95852V13.5429H26.4703L29.6742 16.8757C29.8652 16.1363 30 15.374 30 14.5724C30.0012 13.316 29.7399 12.0731 29.233 10.9235C28.7261 9.77386 27.9847 8.74276 27.0563 7.89622Z" fill="#F82626"/>
</g>
<defs>
<clipPath id="clip0_201_7628">
<rect width="30" height="30" fill="white"/>
</clipPath>
</defs>
</svg>
