<svg width="32" height="31" viewBox="0 0 32 31" fill="none" xmlns="http://www.w3.org/2000/svg">
<path d="M13.9185 1.38197C14.5172 -0.460653 17.1241 -0.460657 17.7228 1.38196L20.0864 8.65654C20.3542 9.48059 21.1221 10.0385 21.9885 10.0385H29.6375C31.5749 10.0385 32.3805 12.5177 30.813 13.6565L24.6249 18.1525C23.9239 18.6618 23.6306 19.5645 23.8984 20.3885L26.262 27.6631C26.8607 29.5057 24.7518 31.038 23.1843 29.8992L16.9962 25.4033C16.2952 24.894 15.3461 24.894 14.6451 25.4033L8.45696 29.8992C6.88953 31.038 4.78057 29.5057 5.37927 27.6631L7.74293 20.3885C8.01068 19.5645 7.71736 18.6618 7.01638 18.1525L0.828264 13.6565C-0.739164 12.5177 0.0663859 10.0385 2.00383 10.0385H9.65277C10.5192 10.0385 11.2871 9.48059 11.5549 8.65654L13.9185 1.38197Z" fill="#E05252"/>
</svg>
