<svg width="283" height="280" viewBox="0 0 283 280" fill="none" xmlns="http://www.w3.org/2000/svg">
<path d="M175.109 264.108C175.101 261.577 175.532 258.999 176.045 256.581C177.219 251.057 179.383 245.812 182.395 241.042C182.452 240.95 182.586 241.039 182.536 241.132C178.185 249.111 173.751 260.897 177.222 269.948C172.974 250.684 191.274 235.28 204.559 224.598C204.646 224.529 204.76 224.653 204.674 224.725C191.179 235.933 177.112 249.358 178.058 267.856C179.417 259.218 184.028 251.996 190.513 246.272C198.761 238.991 207.388 232.368 213.51 223.039C219.685 213.627 222.281 202.694 219.59 191.705C219.555 191.771 219.498 191.82 219.415 191.845C209.59 200.19 197.687 206.042 185.283 210.404C184.43 211.582 183.783 212.861 183.272 214.209C184.573 212.832 185.971 211.544 187.52 210.452C187.632 210.373 187.752 210.556 187.655 210.645C186.267 211.882 184.962 213.171 183.778 214.593C186.881 211.764 190.79 209.66 194.427 208.504C194.624 208.44 194.719 208.747 194.548 208.837C187.628 212.483 181.607 215.997 179.205 223.207C182.039 216.391 189.509 213.038 196.016 210.333C196.058 210.317 196.09 210.377 196.049 210.397C189.612 213.452 183.256 216.844 180.205 223.375C185.059 217.345 192.076 212.828 199.279 211.271C199.681 211.185 199.794 211.769 199.414 211.888C191.466 214.332 184.249 218.403 179.531 225.461C176.423 230.109 175.087 235.054 174.928 240.231C175.511 236.021 176.636 231.914 179.201 228.422C179.277 228.318 179.439 228.421 179.37 228.533C176.961 232.508 176.184 236.877 175.736 241.357C176.735 236.632 178.624 231.951 181.594 228.329C185.993 222.969 192.243 219.503 198.401 216.55C198.53 216.488 198.631 216.681 198.503 216.746C192.787 219.713 187.121 223.054 183.017 228.128C178.953 233.156 177.976 238.842 176.4 244.748C181.032 233.71 190.956 224.292 201.785 219.002C202.017 218.889 202.196 219.233 201.97 219.354C191.243 225.139 181.297 233.326 176.859 245.04C174.858 250.32 174.072 256.025 174.711 261.643C174.804 262.469 174.944 263.291 175.109 264.108ZM175.385 247.413C175.418 247.314 175.461 247.216 175.495 247.118C175.445 247.125 175.396 247.125 175.346 247.118C175.36 247.216 175.37 247.314 175.385 247.413ZM178.559 225.592C178.57 225.575 178.582 225.559 178.595 225.54C178.59 225.533 178.581 225.528 178.575 225.518C178.571 225.544 178.563 225.567 178.559 225.592ZM182.828 215.495C182.861 215.461 182.899 215.43 182.931 215.398C182.909 215.396 182.888 215.395 182.866 215.387C182.854 215.423 182.841 215.46 182.828 215.495ZM159.941 215.709C167.883 209.97 171.414 201.39 174.739 192.404C174.852 192.095 175.272 192.251 175.214 192.559C174.144 198.223 171.618 203.628 168.092 208.365C174.539 202.443 178.595 195.284 182.436 187.187C185.113 181.547 187.893 175.898 191.712 171.005C187.503 175.196 183.043 179.129 178.539 182.784C169.772 189.904 159.534 195.759 148.167 197.169C142.818 197.833 137.679 197.264 132.467 196.023C129.141 195.231 125.783 194.286 122.338 194.253C118.734 194.218 115.26 195.118 111.73 195.69C93.7468 198.61 74.9686 193.477 60.7766 182.208C70.7872 193.067 83.1891 200.978 98.4463 201.352C98.4535 201.352 98.4535 201.363 98.4463 201.363C83.6874 201.642 69.6502 193.699 59.8428 182.92C64.974 192.296 75.2672 199.193 84.7508 203.153C96.7101 208.146 110.019 208.284 121.49 201.928C121.857 201.724 122.142 202.286 121.791 202.497C110.312 209.454 96.0066 208.842 83.9646 203.667C82.8976 203.209 81.8307 202.708 80.7673 202.184C81.0715 202.462 81.3719 202.743 81.6814 203.013C90.3085 207.288 98.6766 210.808 108.59 209.911C108.675 209.903 108.707 210.03 108.619 210.043C100.863 211.283 92.7374 209.398 85.5604 206.038C90.6557 209.589 96.505 212.098 102.615 213.113C112.491 214.753 121.355 212.277 130.204 208.065C130.31 208.014 130.391 208.168 130.288 208.224C114.983 216.864 96.5823 216.206 83.0434 205.358C89.085 211.808 96.8036 216.421 105.658 218.095C117.901 220.412 129.797 216.557 139.563 209.182C139.798 209.006 140.1 209.319 139.876 209.524C132.077 216.719 121.973 219.894 111.976 219.525C115.636 220.077 119.285 220.153 123.054 219.783C123.113 219.778 123.137 219.866 123.074 219.876C118.858 220.663 114.567 220.693 110.346 220.037C123.18 223.672 135.388 220.261 146.509 212.671C146.563 212.633 146.628 212.729 146.577 212.764C136.605 219.822 122.914 225.756 110.731 221.432C117.295 225.354 125.362 225.372 132.859 223.203C142.405 220.443 149.515 214.349 155.394 206.556C155.592 206.296 155.982 206.544 155.823 206.832C151.556 214.472 143.788 220.207 135.515 223.17C138.192 222.431 140.787 221.442 143.295 220.189C143.379 220.146 143.442 220.27 143.363 220.319C141.255 221.583 139.081 222.597 136.819 223.385C142.456 222.22 147.351 220.323 152.088 216.207C152.126 216.175 152.172 216.228 152.139 216.264C148.413 220.239 142.95 223.545 137.327 224.497C142.467 224.144 150.761 222.343 159.941 215.709ZM107.563 219.136C107.581 219.152 107.599 219.164 107.617 219.18C107.619 219.168 107.62 219.154 107.624 219.142C107.602 219.141 107.583 219.138 107.563 219.136ZM87.8401 193.477C87.8941 193.567 87.9138 193.651 87.9174 193.73C89.7489 194.134 91.6003 194.458 93.4607 194.698C93.0145 193.985 92.9534 193.111 93.1783 192.295C92.1869 191.814 91.1955 191.324 90.1322 191.022C90.008 190.988 86.7336 190.486 86.4294 191.172C86.9026 191.94 87.3722 192.706 87.8401 193.477ZM77.5253 175.302C77.6745 175.634 77.8383 175.96 77.993 176.291C78.2557 175.852 78.6875 175.539 79.1858 175.353C78.9088 175.039 78.7055 174.616 78.5508 174.174C78.0092 173.392 77.3094 172.789 76.3648 172.495C76.7174 173.425 77.0989 174.358 77.5253 175.302ZM76.0481 171.633C76.8146 171.741 77.581 172.081 78.1963 172.595C78.1225 171.854 78.2844 171.054 78.8242 170.522C78.7883 170.495 78.7559 170.46 78.7289 170.409C77.8563 168.695 76.4691 167.597 74.6519 167.038C75.0441 168.568 75.4993 170.096 76.0481 171.633ZM73.7146 168.768C73.1118 166.899 71.6437 155.938 71.9604 154.027C71.9801 153.912 72.4677 153.605 72.5792 153.757C73.7343 155.363 78.7685 162.723 79.4 163.779C79.4468 163.856 79.5026 163.913 79.5602 163.968C69.6267 145.526 81.2334 123.704 85.4921 105.194C89.8839 86.1041 88.745 67.1765 81.075 49.7477C87.0628 67.2773 87.9569 87.4643 81.3701 104.857C81.3431 104.927 81.2423 104.893 81.2604 104.821C85.3607 88.0131 85.9797 71.2283 81.4151 54.8376C83.2071 63.6069 83.4877 72.6479 81.1956 81.3686C79.4198 88.121 76.4115 94.4632 74.3928 101.136C72.0971 108.725 71.7768 116.206 72.7394 124.042C72.7465 124.107 72.6548 124.128 72.6405 124.064C69.7293 110.357 74.9614 98.5941 79.0977 85.8467C82.6368 74.9455 81.8991 64.4489 79.6375 53.8714C80.3878 62.6552 79.0347 71.6727 75.3572 79.6738C75.314 79.769 75.1646 79.7278 75.1989 79.6233C78.6119 69.3139 79.6195 59.0028 77.6853 48.4414C78.0236 53.6628 77.8114 58.8931 76.8092 64.1197C75.0856 73.0976 71.3396 81.482 68.3656 90.0784C62.0504 108.335 61.6113 127.529 67.2914 146.005C67.3724 146.264 66.9657 146.346 66.883 146.095C61.4998 129.569 61.1525 111.367 66.0733 94.6845C67.1708 90.9637 68.5131 87.3239 69.8696 83.6896C66.0697 88.4827 62.2428 93.2306 59.9326 98.9773C57.2789 105.577 56.6707 112.7 57.8924 119.688C57.9212 119.859 57.6621 119.918 57.6261 119.745C54.9183 106.793 59.3425 95.7459 66.9117 85.9098C62.5632 89.7654 58.1857 93.0922 54.9741 98.3117C54.9111 98.416 54.7654 98.3152 54.8176 98.2109C57.788 92.2286 63.362 86.7896 68.9755 83.2487C69.015 83.2218 69.0546 83.211 69.0924 83.2073C69.3587 82.8925 69.634 82.5812 69.9056 82.2681C67.1924 84.8518 63.5347 86.3055 60.199 88.0958C56.8741 89.8806 54.0439 92.054 52.3455 95.5084C50.978 98.2847 50.6326 101.207 50.3033 104.195C50.6812 107.604 50.9564 111.026 51.624 114.402C52.7233 119.965 54.5782 125.262 56.7392 130.494C56.8236 130.701 56.5304 130.865 56.4261 130.659C52.0198 121.865 50.5354 112.608 49.4181 102.948C48.7974 97.5955 47.4553 92.6712 44.5784 88.0651C42.6461 84.9706 40.2783 82.243 37.8979 79.5173C41.3398 85.0695 43.4376 91.865 45.0407 97.9842C47.2466 106.408 48.4161 115.091 49.3984 123.729C49.4073 123.813 49.2814 123.846 49.2653 123.758C47.8493 115.832 46.5412 107.894 44.5154 100.093C43.3927 95.7658 42.045 91.4764 40.3268 87.3455C39.0332 84.2365 37.3402 81.3721 35.8181 78.3981C35.8414 78.5546 35.8667 78.713 35.8883 78.8713C39.5047 85.0876 39.6899 91.552 40.4168 98.5725C40.4258 98.6552 40.3035 98.6859 40.2891 98.6012C39.7457 95.2224 39.2743 91.8309 38.6896 88.4592C38.2667 86.0087 37.3024 83.9325 36.2877 81.8039C38.7993 101.106 39.1394 121.241 52.3868 136.793C52.6333 137.084 52.2106 137.477 51.9479 137.196C34.9923 118.997 38.3172 91.9622 33.2524 69.4184C29.8933 54.4634 19.9924 37.1371 21.8509 21.2665C20.8145 25.8093 19.7422 30.356 19.5515 35.0303C19.3428 40.113 20.3359 45.0932 21.7753 49.9439C24.3392 58.5781 28.1319 66.8778 28.8587 75.953C28.8678 76.0753 28.6626 76.0898 28.6447 75.971C27.128 65.908 22.4213 56.8653 19.8844 47.0903C18.4072 41.4049 18.3209 35.8704 19.0135 30.3344C16.8167 39.2385 15.4925 48.2868 15.9837 57.657C16.8221 73.6482 22.02 88.9234 29.0908 103.175C29.1754 103.344 28.9217 103.475 28.8317 103.31C21.4299 89.6089 16.286 74.474 15.0607 58.8858C13.983 45.1705 16.8005 32.1048 20.9728 19.2495C18.5601 24.1326 16.2194 28.9922 14.5894 34.3088C12.3259 41.6944 11.1385 49.3789 10.7732 57.0866C10.7714 57.1065 10.7426 57.1046 10.7426 57.0849C10.8866 49.3033 12.0237 41.6495 14.0928 34.1469C15.7965 27.9649 18.0419 21.2665 21.4227 15.6098C15.9729 23.1699 12.1082 31.8115 9.90421 40.928C3.79593 66.1978 11.1385 92.7252 24.5298 114.407C31.0736 125.001 39.0567 134.646 47.7719 143.518C56.2245 152.124 65.6955 159.743 73.7146 168.768ZM22.1532 19.2603C22.1136 19.3844 22.0739 19.5086 22.0344 19.6327C22.0506 19.6543 22.056 19.6831 22.0685 19.7065C22.0938 19.5572 22.1262 19.4097 22.1532 19.2603ZM76.9441 41.5884C76.9585 41.6765 76.9674 41.7665 76.9801 41.8564C77.0106 41.8421 77.0412 41.8294 77.0736 41.8205C77.0305 41.743 76.989 41.6657 76.9441 41.5884ZM74.7041 166.62C75.9546 166.8 77.1205 167.413 78.0182 168.301C77.7196 167.088 77.9841 165.675 78.7648 164.771C78.0884 163.525 77.4316 160.955 75.4202 161.616C73.7325 162.171 74.6214 165.273 74.7041 166.62ZM76.4115 160.794C75.0189 158.796 73.7163 156.742 72.5252 154.653C72.8672 157.437 73.2234 160.093 73.7038 162.696C73.8837 161.847 74.3209 161.141 75.1359 160.875C75.5875 160.728 76.014 160.713 76.4115 160.794ZM79.5332 164.968C78.5742 166.678 78.6281 168.082 79.4341 169.878C79.4846 169.993 79.4036 170.128 79.2938 170.143C79.2957 170.155 79.2992 170.169 79.3028 170.181C80.1377 169.764 81.0553 170.143 81.8649 170.769C81.6382 170.387 81.4565 169.969 81.4636 169.522C81.4727 168.945 81.8145 168.401 82.3093 168.22C81.3522 167.168 80.4273 166.08 79.5332 164.968ZM91.1056 176.233C89.6086 176.667 90.8608 178.678 91.433 179.394C91.7551 179.798 92.2121 180.101 92.5053 180.512C92.5449 180.4 92.5792 180.285 92.6349 180.178C93.4337 178.691 95.0206 178.984 96.3197 179.631C94.524 178.617 92.786 177.48 91.1056 176.233ZM152.377 165.629C154.6 166.748 156.708 164.637 158.514 163.578C158.411 163.54 158.306 163.513 158.205 163.461C156.83 162.755 156.704 161.43 157.113 160.184C156.163 161.3 155.267 162.349 154.457 163.292C153.779 164.081 153.082 164.859 152.377 165.629ZM152.674 163.373C152.699 163.365 152.721 163.369 152.744 163.365C154.088 161.845 155.386 160.288 156.635 158.712C162.949 150.759 168.254 141.899 176.195 135.42C160.665 129.508 146.385 141.737 130.778 139.916C121.543 138.838 113.444 132.971 109.089 124.945C111.242 130.953 114.646 136.03 120.542 139.408C127.395 143.334 135.269 143.728 142.974 143.322C142.994 143.321 142.996 143.355 142.977 143.356C128.995 145.205 111.363 139.873 107.581 124.931C108.151 129.006 109.832 132.865 112.332 136.139C112.46 136.091 112.642 136.164 112.615 136.327C112.608 136.374 112.604 136.419 112.597 136.466C114.515 138.895 116.879 140.995 119.581 142.6C128.236 147.748 138.61 147.539 148.014 144.875C148.365 144.776 148.471 145.314 148.133 145.422C138.444 148.551 127.041 148.354 118.282 142.698C116.606 141.613 115.069 140.333 113.689 138.911C116.933 145.071 121.183 149.523 128.272 151.461C136.593 153.733 145.06 151.733 152.868 148.629C152.965 148.59 153.045 148.732 152.946 148.778C145.079 152.335 136.003 154.704 127.455 152.315C120.334 150.327 114.981 145.627 112.39 138.778C112.097 147.323 117.7 154.718 126.188 157.063C136.34 159.866 145.727 155.515 153.885 149.739C154.14 149.557 154.476 149.891 154.225 150.108C148.461 155.104 139.032 158.517 131.107 158.673C139.896 161.258 147.793 159.176 155.577 154.229C155.661 154.177 155.726 154.31 155.648 154.364C149.618 158.534 141.608 161.993 134.164 160.611C136.567 161.406 139.135 161.994 141.228 161.939C147.141 161.781 152.082 159.089 156.72 155.661C157.002 155.451 157.367 155.819 157.098 156.071C153.348 159.628 148.349 161.98 143.198 162.565C146.043 163.002 148.575 163.056 151.344 161.824C151.44 161.781 151.512 161.916 151.42 161.966C149.667 162.959 147.546 163.613 145.466 163.602C147.805 164.158 150.164 164.142 152.674 163.373ZM129.304 158.657C129.31 158.658 129.315 158.661 129.319 158.662C129.32 158.661 129.32 158.658 129.32 158.657C129.315 158.657 129.312 158.657 129.304 158.657ZM187.622 138.427C191.492 138.491 195.243 139.78 199.047 140.501C204.99 141.632 211.664 142.727 216.508 146.646C221.62 150.782 221.784 156.181 221.682 162.295C221.547 170.411 221.617 178.563 221.239 186.672C221.247 186.72 221.25 186.769 221.261 186.821C221.504 188.025 223.063 189.09 224.348 188.739C226.873 188.052 225.619 183.322 225.433 181.51C225.43 181.474 225.437 181.444 225.442 181.412C224.748 182.081 224.04 182.74 223.314 183.376C223.296 183.393 223.278 183.395 223.262 183.406C223.328 184.069 223.406 184.731 223.511 185.401C223.565 185.749 223.084 185.849 222.98 185.515C219.021 172.935 229.685 154.893 217.499 145.013C211.614 140.242 201.781 139.274 194.557 137.956C191.309 137.362 188.049 136.833 184.805 136.224C183.213 135.928 181.193 134.904 180.93 134.817C181.524 134.441 182.936 133.563 183.521 133.207C182.225 132.714 180.754 131.208 179.46 131.935C175.26 134.296 182.544 138.342 187.622 138.427ZM182.26 134.632C185.113 136.218 193.311 136.671 195.255 137.023C198.499 137.613 201.74 138.254 204.944 139.047C210.605 140.449 216.979 142.104 220.575 147.084C223.789 151.536 224.429 157.357 224.192 162.7C223.888 169.517 222.642 175.917 223.188 182.656C224.055 181.877 224.891 181.077 225.706 180.262C225.723 180.226 225.749 180.203 225.781 180.188C229.323 176.627 232.351 172.714 234.949 168.502C233.762 166.304 234.66 161.561 235.255 159.994C237.381 154.405 241.426 154.663 241.543 154.64C242.829 151.007 243.866 147.283 244.657 143.515C245.153 141.143 245.701 138.536 246.025 135.899C245.678 135.737 244.719 135.451 244.619 135.442C244.686 135.729 244.732 136.014 244.708 136.296C244.694 136.463 244.505 136.57 244.36 136.474C243.28 135.778 243.245 133.668 243.816 132.291C243.806 132.244 243.827 132.201 243.869 132.173C244.03 131.82 244.23 131.519 244.468 131.32C244.527 131.269 244.63 131.309 244.624 131.393C244.603 131.631 244.565 131.865 244.522 132.097C244.836 132.086 246.019 132.158 246.288 132.196C246.299 131.791 246.184 130.884 246.157 130.798C244.285 124.891 237.731 126.59 233.875 129.137C230.801 131.17 225.096 136.299 225.198 136.148C227.911 132.16 240.562 117.574 229.674 115.489C229.487 115.503 229.302 115.525 229.114 115.548C229.395 115.985 229.649 116.448 229.886 116.924C229.999 116.822 230.107 116.716 230.209 116.595C230.361 116.412 230.748 116.529 230.628 116.795C230.09 117.982 228.805 118.463 227.58 118.61C226.761 118.709 225.39 118.639 225.187 117.631C225.179 117.59 225.22 117.545 225.263 117.563C225.428 117.635 225.583 117.694 225.735 117.752C225.565 117.191 225.335 116.719 225.048 116.331C221.837 117.173 218.681 118.445 215.696 119.503C214.97 119.76 214.247 120.021 213.521 120.283C213.512 120.31 213.487 120.336 213.475 120.361C214.404 126.194 202.287 130.222 198.245 126.377C192.765 128.817 187.41 131.527 182.26 134.632ZM198.615 125.67C202.476 129.38 212.036 125.336 212.849 120.264C212.784 120.159 212.73 120.046 212.646 119.931C212.45 119.655 212.17 119.443 211.85 119.326C211.349 119.143 210.822 119.184 210.298 119.24C210.533 119.458 210.735 119.711 210.896 120.013C210.992 120.19 210.885 120.361 210.738 120.426C208.884 124.477 204.064 126.879 199.869 124.774C199.804 124.742 199.842 124.63 199.912 124.639C200 124.652 200.085 124.659 200.171 124.668C200.056 124.085 200.075 123.518 200.194 122.975C199.518 123.139 198.845 123.362 198.548 124.065C198.298 124.657 198.515 125.132 198.615 125.67ZM200.472 124.702C204.588 125.125 208.122 123.97 210.463 120.4C210.443 120.388 210.422 120.379 210.406 120.359C208.822 118.596 205.833 118.734 203.787 119.629C201.592 120.589 200.696 122.428 200.472 124.702ZM224.648 114.875C225.604 115.508 226.28 116.489 226.429 117.95C226.78 118.015 227.141 118.025 227.575 117.952C228.272 117.833 228.944 117.606 229.512 117.216C228.605 116.169 227.785 115.014 226.785 114.053C225.285 112.948 223.833 111.975 221.783 111.403C220.124 110.94 218.393 110.625 216.994 109.549C214.604 107.712 214.048 104.47 214.215 101.638C214.573 95.6218 218.2 89.9022 223.382 86.8615C216.385 89.7349 209.707 96.0266 211.102 104.085C211.912 108.763 215.647 112.164 220.114 113.32C221.738 113.743 223.32 113.954 224.594 114.888C224.595 114.888 224.596 114.888 224.599 114.886C224.615 114.882 224.631 114.879 224.648 114.875ZM245.445 125.704C243.626 120.256 238.49 115.994 232.717 115.483C232.137 115.433 231.557 115.42 230.975 115.429C233.722 116.311 234.879 119.477 234.385 122.38C233.869 125.389 232.061 128.464 229.949 131.219C232.482 128.894 235.433 126.928 238.456 126.228C241.419 125.541 244.69 126.489 246.164 129.053C246.03 127.899 245.802 126.777 245.445 125.704ZM230.315 114.391C233.641 114.211 236.925 114.828 240.028 116.885C244.851 120.08 246.705 124.526 247.11 129.448C253.73 122.943 237.646 109.708 230.315 114.391ZM244.408 132.712C244.338 133.085 244.279 133.459 244.285 133.851C244.292 134.227 244.393 134.6 244.496 134.971C245.658 134.812 246.693 135.183 247.498 135.91C247.49 135.937 247.482 135.965 247.475 135.992C250.273 137.709 251.517 141.583 253.171 144.357C258.113 152.643 269.216 149.221 274.528 143.235C270.484 146.949 264.066 149.509 258.643 147.953C252.344 146.145 252.472 137.249 248.065 133.979C247.86 133.824 247.643 133.689 247.421 133.56C246.619 133.112 245.685 132.826 244.559 132.773C244.497 132.772 244.449 132.746 244.408 132.712ZM235.8 160.949C235.211 162.785 234.695 166.941 236.15 168.752C237.517 169.394 237.934 168.227 238.22 167.904C237.98 167.88 237.269 167.656 237.235 167.536C237.186 167.499 237.148 167.445 237.132 167.373C236.29 163.338 238.344 158.615 241.834 156.465C241.923 156.41 242.013 156.507 241.998 156.594C242.055 156.58 242.526 156.958 242.695 157.133C242.597 156.745 242.597 156.294 242.363 155.957C242.195 155.715 241.975 155.633 241.753 155.559C238.746 155.935 236.729 158.064 235.8 160.949ZM241.894 156.886C241.857 156.853 241.842 156.812 241.84 156.774C240.298 158.14 239.116 159.742 238.476 161.724C237.916 163.455 237.896 165.192 237.738 166.969C243.773 167.931 246.023 160.65 241.894 156.886ZM221.238 188.763C221.172 188.709 221.101 188.657 221.045 188.599C220.521 188.074 220.444 187.475 220.483 186.844C220.481 186.827 220.473 186.811 220.473 186.79C220.459 185.803 220.47 184.815 220.47 183.826C219.018 184.58 217.442 185.164 216.779 186.823C216.066 188.612 216.848 190.485 218.604 191.001C219.49 190.276 220.37 189.535 221.238 188.763ZM209.132 197.699C210.351 196.954 211.554 196.181 212.743 195.373C211.625 194.849 211 193.326 211.089 192.111C209.977 192.672 208.796 193.232 208.111 194.313C207.958 194.552 207.846 194.821 207.775 195.097C207.778 195.162 207.765 195.224 207.737 195.281C207.532 196.355 207.948 197.499 209.132 197.699ZM204.434 200.384C205.72 199.693 206.994 198.973 208.253 198.223C207.327 197.746 206.767 196.694 206.848 195.591C205.585 196.03 204.059 196.25 203.28 197.47C202.396 198.849 203.253 199.819 204.434 200.384ZM199.728 202.767C201.012 202.156 202.283 201.523 203.54 200.862C202.751 200.411 202.148 199.742 202.049 198.876C201.103 199.226 200.203 199.679 199.788 200.676C199.584 201.163 199.519 201.717 199.589 202.241C199.614 202.426 199.669 202.597 199.728 202.767ZM190.579 206.702C192.85 205.816 195.096 204.88 197.31 203.883C195.687 203.798 194.235 203.126 193.823 201.434C192.755 202.093 191.65 202.755 190.844 203.733C190.385 204.289 190.019 204.988 190.133 205.735C190.189 206.111 190.384 206.403 190.579 206.702ZM185.635 208.548C186.999 208.061 188.356 207.559 189.704 207.041C189.401 206.674 189.268 206.172 189.257 205.652C188.47 205.941 187.717 206.289 187.055 206.82C186.429 207.322 186.04 207.917 185.635 208.548ZM175.462 211.957C177.98 211.158 180.482 210.339 182.965 209.485C181.07 209.781 178.386 209.833 177.276 208.012C175.629 208.705 174.721 210.258 175.462 211.957ZM167.188 214.526C168.725 214.054 170.259 213.583 171.789 213.108C170.963 212.796 170.256 212.082 170.024 211.188C168.768 211.953 167.271 212.973 167.188 214.526ZM165.989 210.953C164.135 213.082 162.08 215.047 159.855 216.79C162.082 216.093 164.309 215.408 166.533 214.727C166.51 213.248 167.485 212.169 168.649 211.325C167.742 211.379 166.829 211.289 165.989 210.953ZM169.642 208.149C168.656 208.968 167.619 209.717 166.513 210.36C166.451 210.435 166.383 210.505 166.321 210.578C167.541 210.672 168.694 210.765 169.927 210.518C169.889 209.518 170.316 208.64 170.998 208.006C170.549 208.089 170.096 208.141 169.642 208.149ZM173.203 204.613C172.326 205.639 171.398 206.605 170.409 207.494C171.321 207.247 172.242 207.031 173.14 206.722C173.032 206.443 172.962 206.141 172.952 205.816C172.941 205.384 173.041 204.984 173.203 204.613ZM177.079 199.251C176.26 200.573 175.381 201.863 174.439 203.094C175.025 202.632 175.71 202.276 176.372 202.053C176.233 201.282 176.531 200.465 177.033 199.878C177.235 199.642 177.506 199.391 177.81 199.167C177.567 199.208 177.323 199.235 177.079 199.251ZM179.675 194.649C178.96 196.02 178.199 197.397 177.382 198.746C177.67 198.654 177.961 198.573 178.255 198.503C178.595 198.421 178.942 198.301 179.289 198.291C179.251 198.187 179.212 198.086 179.191 197.962C178.949 196.582 180.026 195.383 181.256 194.66C180.733 194.729 180.201 194.733 179.675 194.649ZM181.961 190.026C181.776 190.405 181.591 190.782 181.408 191.167C180.943 192.137 180.458 193.125 179.95 194.115C180.825 194.083 181.675 193.975 182.511 193.676C182.449 193.508 182.407 193.33 182.398 193.142C182.344 191.982 183.213 190.941 184.298 190.183C183.525 190.276 182.738 190.226 181.961 190.026ZM184.951 184.224C184.005 185.967 183.062 187.781 182.136 189.667C183.683 189.682 185.149 189.423 186.549 188.715C186.462 188.5 186.406 188.264 186.386 188.013C186.288 186.882 186.821 185.994 187.622 185.365C187.033 185.451 186.452 185.452 185.896 185.19C185.468 184.988 185.128 184.635 184.951 184.224ZM187.616 179.525C186.866 180.796 186.114 182.105 185.365 183.466C185.353 185.456 189.059 184.108 190.184 184.159C190.192 184.159 190.196 184.162 190.206 184.165C190.122 183.941 190.056 183.7 190.022 183.422C189.829 181.883 190.562 180.694 191.658 179.837C189.862 180.289 188.032 180.467 187.616 179.525ZM191.788 172.859C190.559 174.716 189.306 176.696 188.047 178.801C188.458 180.524 194.05 178.287 194.951 177.872C194.683 176.454 195.54 175.226 196.706 174.392C196.532 174.422 196.356 174.462 196.181 174.484C195.579 174.562 194.925 174.601 194.462 174.137C193.935 173.61 193.969 172.993 194.246 172.436C193.474 172.765 192.64 172.924 191.788 172.859ZM195.088 168.065C194.138 169.394 193.161 170.801 192.162 172.295C193.911 171.919 195.362 171.141 196.424 169.629C196.047 169.399 195.703 169.092 195.412 168.665C195.277 168.468 195.173 168.269 195.088 168.065ZM189.673 171.237C191.458 169.555 193.22 167.844 194.941 166.089C195.085 165.44 195.389 164.806 195.798 164.226C194.24 165.108 192.513 165.629 191.006 165.125C191 165.156 190.99 165.188 190.959 165.215C189.106 166.881 188.312 169.032 189.673 171.237ZM184.048 176.395C185.743 174.878 187.434 173.344 189.107 171.777C188.219 170.472 188.003 168.706 188.543 167.251C187.329 168.269 185.92 169.074 184.552 168.837C184.023 170.055 183.125 171.078 182.769 172.392C182.327 174.017 182.797 175.469 184.048 176.395ZM173.107 185.299C175.74 183.43 178.277 181.417 180.722 179.324C179.308 179.956 177.775 180.172 176.38 179.374C176.167 179.54 175.956 179.703 175.751 179.869C175.499 180.15 175.206 180.405 174.893 180.641C174.607 180.933 174.339 181.25 174.105 181.622C173.392 182.752 173.091 183.981 173.107 185.299ZM167.57 188.894C169.21 187.929 170.818 186.901 172.386 185.812C172.286 185.735 172.211 185.622 172.201 185.467C172.125 184.301 172.418 182.934 173.016 181.726C172.52 181.952 172.024 182.147 171.557 182.31C170.305 182.748 168.611 183.259 167.456 182.304C167.412 182.266 167.382 182.223 167.339 182.184C167.202 182.261 167.061 182.348 166.912 182.444C166.015 183.331 165.178 184.283 165.01 185.598C164.796 187.248 165.922 188.739 167.57 188.894ZM162.837 191.422C164.079 190.828 165.301 190.194 166.502 189.516C166.188 189.412 165.891 189.268 165.625 189.074C165.218 189.385 164.774 189.705 164.304 190.002C163.79 190.45 163.3 190.922 162.837 191.422ZM154.506 194.582C156.832 193.93 159.083 193.099 161.275 192.133C161.567 191.754 161.875 191.389 162.203 191.049C160.72 191.562 159.171 191.561 157.848 190.335C157.832 190.32 157.82 190.307 157.805 190.292C156.974 190.871 156.163 191.387 155.548 192.229C155.02 192.952 154.685 193.734 154.506 194.582ZM145.152 196.115C145.009 195.08 145.559 193.902 146.175 193.127C146.476 192.749 146.823 192.428 147.198 192.139C146.599 192.25 146.002 192.326 145.449 192.38C144.529 192.471 143.56 192.466 142.904 191.824C140.969 192.806 138.057 193.197 137.892 195.771C140.313 196.096 142.731 196.22 145.152 196.115ZM134.067 195.096C135.05 195.316 136.033 195.49 137.015 195.643C137.122 194.56 137.678 193.61 138.483 192.876C138.308 192.892 138.135 192.909 137.969 192.919C136.78 193.008 135.515 192.768 134.732 191.789C134.677 191.721 134.642 191.654 134.598 191.586C132.626 191.835 130.981 192.555 129.664 194.07C131.129 194.405 132.593 194.767 134.067 195.096ZM128.989 193.915C129.511 192.968 130.344 192.185 131.316 191.686C130.999 191.651 130.684 191.598 130.369 191.523C129.439 191.297 127.917 190.848 127.503 189.859C127.457 189.743 127.43 189.628 127.417 189.515C126.278 189.716 125.008 189.897 124.105 190.674C123.419 191.262 123.189 192.199 123.389 193.05C125.278 193.18 127.136 193.509 128.989 193.915ZM119.679 193.089C118.117 192.741 116.647 192.083 116.474 190.369C116.465 190.283 116.476 190.206 116.476 190.123C116.442 190.126 116.408 190.126 116.373 190.129C115.15 190.33 113.864 190.346 112.748 190.955C111.606 191.578 110.893 193.052 111.498 194.258C114.211 193.806 116.919 193.326 119.679 193.089ZM110.776 194.373C110.474 193.834 110.397 193.235 110.503 192.651C108.148 192.587 105.738 192.625 105.188 195.097C107.07 194.946 108.925 194.675 110.776 194.373ZM93.3366 191.555C93.3726 191.573 93.4104 191.592 93.4445 191.609C93.5795 191.343 93.7324 191.087 93.9249 190.863C94.7436 189.904 95.9238 189.478 97.1436 189.396C95.6504 188.593 94.3334 187.381 94.7147 185.77C94.6788 185.768 94.6428 185.758 94.605 185.741C92.9588 184.926 91.3826 186.334 91.3466 188.002C91.3161 189.515 92.3633 190.551 93.3366 191.555ZM79.5745 179.471C80.6829 181.586 81.8703 183.653 83.0956 185.7C83.2467 184.905 83.8189 184.24 84.5403 183.814C83.8746 182.968 83.4464 181.964 82.7087 181.159C81.8577 180.23 80.8088 179.659 79.5745 179.471ZM79.4989 171.11C78.2216 172.081 79.4684 173.948 79.6213 175.229C79.9704 175.153 80.332 175.129 80.6738 175.164C81.6832 175.271 82.5342 175.854 83.2467 176.589C82.9804 175.612 82.9661 174.57 83.378 173.655C83.459 173.479 83.5561 173.313 83.6623 173.155C83.6065 173.097 83.5544 173.035 83.4985 172.975C82.6062 172.379 80.5389 170.32 79.4989 171.11ZM89.9343 175.35C88.79 174.454 87.6781 173.506 86.5932 172.517C86.5374 172.56 86.4691 172.588 86.3862 172.583C85.0854 172.503 84.0887 173.566 83.9357 174.813C83.7954 175.945 84.2164 177.026 84.4467 178.117C84.4863 178.18 84.5314 178.243 84.5709 178.304C85.2078 178.106 85.8897 178.211 86.5158 178.502C86.0805 177.602 85.8933 176.604 86.2675 175.782C86.9422 174.306 88.7486 174.612 89.9343 175.35ZM90.8789 179.967C90.3608 179.288 89.9631 178.459 89.7958 177.911C89.6248 177.349 89.7112 176.555 90.0656 176.069C89.5421 175.855 89.0455 175.542 88.4751 175.492C87.4946 175.407 86.7821 176.02 86.9368 177.042C87.0717 177.938 87.5 178.757 87.9228 179.562C88.1315 179.795 88.3168 180.046 88.4608 180.303C89.1409 179.828 90.0531 179.733 90.8789 179.967ZM87.9714 180.756C87.1078 179.93 86.4277 178.74 85.0206 178.963C83.3474 179.227 83.6874 180.634 84.1931 181.857C84.5655 182.408 84.866 182.989 85.0783 183.549C85.3319 183.449 85.5893 183.368 85.8501 183.331C86.5662 183.227 87.2751 183.345 87.9372 183.609C87.4964 182.845 87.3165 182.03 87.6979 181.203C87.7753 181.037 87.8688 180.891 87.9714 180.756ZM90.008 180.625C88.7037 180.675 88.0038 181.914 88.5813 183.066C89.1444 184.192 90.2528 185.136 91.1667 186.039C91.7497 185.249 92.6817 184.792 93.6352 184.853C92.8364 183.896 92.2499 182.499 92.3525 181.261C92.3201 181.273 92.2804 181.274 92.2372 181.262C91.5122 181.05 90.7889 180.594 90.008 180.625ZM93.198 181.306C93.0649 182.645 93.8386 183.976 94.5133 185.079C94.6428 185.136 94.7723 185.181 94.8965 185.258C95.6882 183.576 98.0325 183.595 99.864 183.955C98.5254 183.136 97.0376 181.943 96.9601 180.744C95.6917 179.972 93.4266 179.038 93.198 181.306ZM102.324 182.455C100.684 181.838 99.0868 181.105 97.5251 180.284C97.5197 180.311 97.5107 180.335 97.5053 180.361C97.6654 180.5 97.6348 180.707 97.5161 180.826C97.8129 182.138 100.177 183.443 101.392 184.063C101.491 183.437 101.843 182.783 102.324 182.455ZM111.935 184.731C110.584 184.598 109.25 184.389 107.937 184.111C108.295 185.384 109.225 186.12 110.429 186.39C110.715 186.399 110.992 186.418 111.249 186.442C111.267 185.803 111.519 185.17 111.935 184.731ZM110.657 192.095C110.787 191.762 110.971 191.44 111.212 191.145C111.883 190.318 112.869 189.897 113.916 189.724C112.763 189.271 111.764 188.453 111.372 187.303C111.329 187.178 111.302 187.047 111.28 186.915C111.233 186.912 111.181 186.909 111.131 186.908C110.627 187.091 110.1 187.087 109.6 186.944C108.16 187.109 106.712 187.705 106.942 189.384C107.187 191.16 108.842 191.546 110.258 192.026C110.393 192.048 110.526 192.069 110.657 192.095ZM100.276 190.312C100.058 192.682 102.566 194.061 104.493 194.675C104.616 193.88 105.199 193.11 105.832 192.652C106.449 192.204 107.16 191.992 107.896 191.913C106.892 191.323 106.145 190.329 106.127 189.121C106.122 188.819 106.167 188.561 106.233 188.321C106.208 188.329 106.188 188.345 106.154 188.342C104.218 188.102 100.546 187.361 100.276 190.312ZM103.669 187.313C102.615 186.719 101.714 185.889 101.419 184.837C101.413 184.82 101.413 184.803 101.408 184.785C101.303 184.738 101.186 184.68 101.062 184.619C99.3279 184.43 96.2692 183.803 95.6234 185.9C95.0638 187.708 97.5754 188.91 99.2074 189.565C99.2992 189.585 99.3944 189.6 99.4827 189.623C99.506 189.628 99.5132 189.644 99.5294 189.655C100.037 187.734 101.861 187.182 103.669 187.313ZM112.831 184.793C111.544 185.522 111.931 187.605 113.207 188.489C114.218 189.19 115.4 189.207 116.508 189.611C116.735 188.326 117.887 187.546 119.177 187.187C117.588 187.05 116.046 186.483 115.755 184.895C114.77 184.904 113.797 184.864 112.831 184.793ZM133.946 180.162C132.656 180.818 131.336 181.417 129.983 181.957C130.879 182.86 132.377 182.2 133.597 182.154C133.414 181.505 133.583 180.796 133.946 180.162ZM135.222 179.496C134.689 180.064 134.128 180.749 134.225 181.455C134.401 182.731 135.574 183.108 136.659 183.125C138.135 183.15 139.538 182.588 140.916 182.1C140.486 181.323 140.513 180.338 140.936 179.578C139.088 180.415 136.554 181.053 135.803 179.172C135.609 179.28 135.416 179.389 135.222 179.496ZM141.532 175.477C139.847 176.712 138.104 177.856 136.297 178.896C137.451 180.548 140.254 179.11 141.762 178.292C141.72 178.26 141.672 178.234 141.633 178.197C140.797 177.436 140.958 176.416 141.532 175.477ZM163.695 162.944C163.538 163.465 163.323 164.48 163.699 164.925C164.214 165.535 165.276 165.702 166.008 165.551C168.154 165.112 169.83 163.554 171.411 162.142C171.446 162.11 171.484 162.094 171.522 162.075C170.421 161.236 170.337 159.705 170.853 158.403C169.328 159.719 167.337 161.252 165.59 160.423C165.522 160.391 165.46 160.356 165.4 160.319C165.385 160.399 165.351 160.477 165.274 160.546C165.145 160.659 165.006 160.782 164.861 160.908C164.378 161.528 163.932 162.169 163.695 162.944ZM158.728 158.324C158.221 159.136 157.593 160.045 157.604 161.044C157.618 162.461 158.848 163.154 160.114 162.866C161.897 162.458 163.376 161.098 164.699 159.924C164.736 159.892 164.775 159.875 164.813 159.856C164.033 158.977 164.27 157.67 164.821 156.545C163.122 158.027 160.914 159.306 158.848 158.139C158.819 158.175 158.788 158.21 158.757 158.247C158.754 158.272 158.743 158.299 158.728 158.324ZM164.114 151.899C162.457 153.869 160.8 155.834 159.232 157.685C161.553 158.511 163.575 156.773 165.184 155.144C165.104 155.111 165.023 155.08 164.946 155.036C163.639 154.335 163.641 153.07 164.114 151.899ZM170.619 144.133C169.151 145.89 167.56 147.793 165.929 149.736C168.37 151.456 171.569 148.25 172.638 146.133C171.687 145.87 170.726 145.082 170.619 144.133ZM175.109 138.744C174.01 140.066 172.655 141.692 171.144 143.506C171.614 145.017 172.692 145.843 174.376 145.265C175.692 144.816 176.6 143.677 177.44 142.626C176.995 142.538 176.563 142.345 176.161 142.015C175.079 141.124 174.86 139.931 175.109 138.744ZM177.932 135.301C177.927 135.323 177.37 136.009 176.416 137.164C176.253 137.459 176.104 137.761 176.001 138.085C175.511 139.599 175.994 141.515 177.799 141.707C179.837 141.92 181.821 139.911 183.167 138.524C181.038 137.923 179.07 136.98 177.932 135.301ZM189.872 139.78C188.275 139.481 186.155 139.254 184.093 138.767C184.087 138.869 184.055 138.973 183.967 139.068C183.896 139.141 183.818 139.221 183.741 139.301C183.262 140.366 182.849 141.46 183.637 142.565C184.301 143.496 186.008 143.668 187.017 143.463C188.98 143.067 190.148 141.61 191.099 139.996C190.689 139.923 190.279 139.856 189.872 139.78ZM192.017 140.159C191.598 141.167 191.065 142.182 191.589 143.334C192.22 144.726 193.827 145.199 195.223 144.946C197.336 144.562 198.626 142.874 200.139 141.541C197.433 141.035 194.705 140.618 192.017 140.159ZM200.792 141.671C200.809 141.748 200.807 141.831 200.744 141.915C200.732 141.931 200.717 141.947 200.705 141.966C200.61 142.579 200.41 143.144 200.251 143.761C199.959 144.878 199.836 145.433 200.674 146.317C201.322 146.999 201.586 147.171 202.492 147.198C204.968 147.273 207.286 145.611 208.736 143.707C206.158 142.832 203.492 142.194 200.792 141.671ZM210.376 144.283C210.15 144.195 209.918 144.127 209.691 144.042C209.718 144.085 209.731 144.136 209.71 144.198C208.954 146.512 207.888 149.183 210.887 150.416C213.199 151.37 215.585 150.162 217.604 149.045C217.652 149.018 217.697 149.013 217.744 149.006C215.775 146.837 213.098 145.342 210.376 144.283ZM220.85 156.536C220.705 154.858 220.362 153.226 219.614 151.717C219.22 150.926 218.74 150.2 218.198 149.534C218.176 149.639 218.127 149.741 218.005 149.809C217.79 149.928 217.571 150.044 217.347 150.161C216.033 151.32 214.84 152.698 215.229 154.607C215.813 157.476 218.732 156.626 220.85 156.536ZM220.768 166.169C220.786 165.33 220.807 164.49 220.822 163.651C220.856 161.702 221.002 159.643 220.921 157.621C218.826 158.419 216.991 159.716 216.837 162.18C216.747 163.627 217.499 165.01 218.794 165.659C219.439 165.981 220.095 166.021 220.768 166.169ZM220.556 175.433C220.616 172.696 220.683 169.959 220.747 167.224C218.951 167.764 217.35 168.734 216.686 170.611C215.662 173.496 218.057 174.974 220.556 175.433ZM220.467 182.842C220.473 180.697 220.497 178.551 220.54 176.404C219.836 176.538 219.139 176.594 218.481 176.98C217.536 177.534 216.925 178.497 216.829 179.587C216.639 181.796 218.48 183.069 220.467 182.842ZM215.613 187.522C215.928 185.743 217.32 184.181 219.03 183.59C217.513 183.275 216.279 181.933 216.095 180.305C216.082 180.308 216.066 180.308 216.051 180.312C216.076 180.386 216.056 180.475 215.971 180.529C214.684 181.358 213.033 181.8 212.117 183.12C210.528 185.409 212.612 187.923 215.153 187.437C215.302 187.41 215.41 187.464 215.48 187.549C215.523 187.538 215.569 187.53 215.613 187.522ZM211.286 191.181C211.691 189.959 212.622 188.917 213.751 188.242C212.069 187.994 210.723 186.518 210.789 184.688C209.13 184.954 207.516 185.967 207.254 187.757C206.911 190.102 209.248 191.431 211.286 191.181ZM207.019 194.717C207.478 193.416 208.622 192.536 209.887 191.972C208.311 191.808 206.88 190.496 206.533 188.921C204.813 189.014 203.125 190.129 203.395 192.068C203.673 194.058 205.353 194.485 207.019 194.717ZM202.064 198.258C202.088 198.093 202.125 197.926 202.184 197.752C202.701 196.262 204.138 195.54 205.616 195.265C204.061 194.875 202.779 193.876 202.607 192.117C202.551 192.148 202.491 192.172 202.416 192.176C202.388 192.177 202.357 192.18 202.33 192.181C201.116 192.941 199.719 193.645 199.264 195.1C198.912 196.229 199.383 197.291 200.493 197.766C200.964 197.968 201.445 197.995 201.887 198.248C201.947 198.248 202.005 198.252 202.064 198.258ZM198.924 203.02C198.55 202.136 198.674 200.954 199.055 200.164C199.336 199.581 199.804 199.052 200.367 198.695C199.463 198.384 198.696 197.537 198.418 196.618C196.733 197.332 194.775 197.918 194.606 200.12C194.397 202.854 196.855 203.128 198.924 203.02ZM189.369 204.692C189.431 204.445 189.509 204.208 189.612 204.009C190.127 203.008 191.054 202.203 192.087 201.645C190.5 201.693 188.773 201.323 188.23 199.97C188.194 199.981 188.155 199.988 188.113 199.985C188.111 199.985 188.109 199.985 188.107 199.985C186.84 200.641 185.291 201.461 185.237 202.982C185.21 203.704 185.472 203.883 186.109 204.238C186.503 204.457 186.951 204.605 187.395 204.678C188.036 204.781 188.651 204.611 189.283 204.656C189.32 204.661 189.339 204.682 189.369 204.692ZM177.82 207.354C178.614 209.015 180.722 208.93 182.327 208.79C181.874 208.311 181.572 207.679 181.529 206.994C181.458 205.809 182.094 204.813 182.997 204.149C182.001 204.273 180.957 204.101 180.474 203.326C180.304 203.381 180.126 203.435 179.941 203.482C178.711 204.459 176.973 205.593 177.82 207.354ZM176.501 202.479C175.635 203.064 174.674 203.574 174.08 204.461C172.782 206.408 174.866 208.402 176.87 207.44C176.911 207.423 176.949 207.413 176.984 207.409C176.982 207.401 176.978 207.393 176.973 207.385C176.465 205.874 177.366 204.519 178.595 203.666C177.695 203.671 176.871 203.376 176.501 202.479ZM179.54 198.756C179.477 198.792 179.408 198.816 179.342 198.842C178.948 199.187 178.413 199.386 177.999 199.711C177.35 200.224 176.785 201.027 176.96 201.901C177.27 203.45 179.089 203.047 180.248 202.689C180.231 202.595 180.205 202.512 180.2 202.41C180.128 201.201 181.014 200.063 182.084 199.27C181.097 199.434 180.08 199.409 179.54 198.756ZM182.931 194.317C182.274 194.68 181.636 195.097 181.089 195.616C180.545 196.131 179.601 197.213 180.038 198.058C180.642 199.218 182.456 198.166 183.586 198.232C183.569 198.156 183.542 198.092 183.532 198.009C183.368 196.706 184.079 195.728 185.073 195.076C184.641 195.116 184.205 195.074 183.778 194.903C183.456 194.773 183.167 194.567 182.931 194.317ZM186.978 189.375C185.728 190.016 184.517 190.782 183.683 191.938C183.039 192.83 183.104 193.899 184.287 194.212C185.226 194.46 186.195 193.921 187.022 193.541C187.039 193.535 187.053 193.535 187.07 193.529C187.06 193.346 187.067 193.152 187.097 192.942C187.256 191.805 187.994 190.771 188.97 190.086C188.674 190.072 188.395 190.04 188.149 189.995C187.67 189.904 187.275 189.684 186.978 189.375ZM195.25 178.71C193.451 179.617 191.037 180.362 190.845 182.726C190.59 185.916 194.645 185.052 196.534 184.549C196.273 183.001 197.22 181.445 198.525 180.496C197.175 180.447 195.865 179.9 195.25 178.71ZM199.333 173.834C198.996 173.921 198.658 173.997 198.32 174.076C197.036 174.767 195.729 175.87 195.706 177.304C195.663 179.821 198.707 179.776 200.396 179.493C200.407 179.492 200.414 179.496 200.425 179.493C200.398 179.373 200.367 179.255 200.353 179.129C200.151 177.202 201.578 175.893 203.249 175.206C201.732 175.329 200.205 175.029 199.333 173.834ZM205.23 168.301C205.173 168.117 205.133 167.92 205.11 167.714C204.952 166.22 205.718 164.875 206.825 163.891C205.801 164.107 204.802 164.123 204.111 163.686C204.106 163.727 204.088 163.764 204.045 163.781C202.704 164.328 201.597 165.904 202.472 167.321C203.071 168.292 204.199 168.518 205.23 168.301ZM195.669 167.257C195.713 167.467 195.779 167.68 195.879 167.898C196.874 170.067 199.522 169.34 201.371 168.617C201.659 168.463 201.951 168.331 202.234 168.225C201.995 167.984 201.79 167.705 201.651 167.386C201.295 166.57 201.419 165.641 201.851 164.898C200.641 165.42 199.325 165.578 198.627 164.508C198.465 164.258 198.38 163.961 198.353 163.643C197.495 164.768 196.598 165.975 195.669 167.257ZM196.324 164.643C197.073 163.859 197.818 163.071 198.548 162.272C198.557 162.245 198.562 162.219 198.572 162.194C198.32 162.423 198.044 162.658 197.751 162.893C197.262 163.439 196.734 164.021 196.324 164.643ZM198.059 161.594C197.206 161.878 196.324 161.991 195.486 161.8C194.273 161.522 193.332 160.26 193.954 159.109C193.666 159.101 193.377 159.071 193.096 159.004C192.37 158.831 191.837 158.537 191.442 158.167C191.023 158.916 190.57 159.646 190.189 160.415C189.473 161.864 189.457 163.893 191.388 164.407C193.694 165.019 196.278 163.067 198.059 161.594ZM190.092 164.679C190.036 164.639 189.979 164.604 189.922 164.56C188.426 163.395 188.679 161.744 189.468 160.245C188.246 161.171 186.7 161.814 185.41 161.653C184.425 163.083 181.54 166.921 184.374 167.869C186.522 168.588 188.577 165.956 190.092 164.679ZM183.735 168.641C183.757 168.622 183.78 168.615 183.804 168.605C183.622 168.517 183.442 168.41 183.264 168.275C182.115 167.405 182.125 166.008 182.634 164.659C181.296 165.637 179.651 166.181 178.398 165.602C177.426 167.324 175.261 171.027 177.678 172.048C179.838 172.96 182.215 169.803 183.735 168.641ZM169.433 181.903C171.326 181.898 172.859 180.761 174.412 179.81C174.806 179.442 175.246 179.137 175.731 178.926C174.539 177.899 174.435 176.446 174.887 175.086C173.433 175.995 171.649 176.41 170.258 175.553C168.903 177.042 165.182 181.915 169.433 181.903ZM162.135 184.364C163.968 183.95 165.189 182.329 166.926 181.688C166.263 180.643 166.54 179.307 167.225 178.081C165.436 179.27 163.355 180.014 161.774 178.729C161.512 179.017 161.173 179.317 160.789 179.609C160.457 179.992 160.144 180.392 159.91 180.84C158.987 182.617 159.877 184.872 162.135 184.364ZM152.096 190.782C153.752 191.055 155.722 190.226 157.195 189.515C156.525 188.273 157.064 186.924 158.02 185.872C156.37 186.612 154.279 187.082 152.969 186.162C152.379 186.72 151.751 187.29 151.319 187.966C150.649 189.009 150.585 190.534 152.096 190.782ZM144.348 191.538C145.225 191.794 146.604 191.351 147.48 191.146C148.353 190.941 149.189 190.585 150.061 190.401C149.536 189.384 149.99 188.29 150.752 187.355C149.314 187.917 147.702 188.095 146.569 187.109C145.84 187.414 145.06 187.696 144.398 188.132C143.147 188.954 142.407 190.971 144.348 191.538ZM128.362 188.851C127.942 189.908 129.056 190.293 129.677 190.531C131.141 191.095 132.701 191.092 134.218 190.778C134.013 189.893 134.479 189.109 135.211 188.506C133.842 188.707 132.465 188.484 131.533 187.417C131.023 187.543 130.456 187.632 129.873 187.665C129.684 187.749 129.499 187.846 129.315 187.964C129.013 188.161 128.504 188.495 128.362 188.851ZM123.3 188.029C124.553 188.905 126.089 188.711 127.525 188.867C127.726 188.371 128.169 187.932 128.576 187.637C127.334 187.503 126.163 187.039 125.461 186.032C124.972 185.33 124.92 184.295 125.287 183.538C124.767 183.68 124.247 183.811 123.729 183.93C123.718 183.961 123.707 183.992 123.682 184.015C123.057 184.587 122.388 184.857 122.219 185.795C122.054 186.715 122.561 187.512 123.3 188.029ZM116.375 184.882C117.358 186.683 119.567 186.664 121.48 186.465C121.406 185.7 121.589 184.861 122.03 184.289C120.118 184.64 118.232 184.834 116.375 184.882ZM132.075 183.157C131.03 183.204 129.997 182.953 129.502 182.146C128.583 182.502 127.654 182.838 126.706 183.136C126.521 183.194 126.337 183.237 126.152 183.293C125.818 183.692 125.674 184.243 125.758 184.783C125.882 185.581 126.499 186.105 127.203 186.426C128.397 186.967 129.799 186.929 131.094 186.761C130.45 185.482 131.01 184.02 132.075 183.157ZM134.428 183.298C134.22 183.146 134.056 182.977 133.923 182.8C133.835 182.831 133.741 182.861 133.646 182.891C132.223 183.86 130.546 185.627 132.458 187.117C134.013 188.327 135.965 187.5 137.644 187.032C137.091 185.673 137.873 184.475 139.02 183.642C137.401 184.09 135.621 184.173 134.428 183.298ZM142.507 178.709C142.519 178.78 142.513 178.853 142.445 178.903C140.726 180.2 141.325 182.499 143.535 182.563C145.164 182.611 146.771 181.865 148.266 181.284C147.762 180.23 148.176 178.937 148.917 177.894C147.899 178.408 146.796 178.747 145.65 178.876C144.727 178.983 143.49 179.06 142.507 178.709ZM150.919 171.364C150.509 171.985 150.029 172.577 149.762 173.278C149.563 173.792 149.443 174.277 149.575 174.837C149.732 175.493 150.568 175.993 151.224 176.041C151.929 176.095 153.062 175.385 153.669 175.06C154.345 174.697 154.97 174.263 155.577 173.801C154.905 172.847 155.046 171.745 155.576 170.743C154.066 171.54 152.375 171.974 151.02 171.417C150.983 171.401 150.952 171.383 150.919 171.364ZM158.545 168.501C158.168 168.907 157.688 169.337 157.145 169.744C155.99 171.291 154.97 173.264 157.454 174.004C159.418 174.587 161.826 173.004 163.187 171.762C163.224 171.726 163.268 171.707 163.309 171.688C163.251 171.65 163.192 171.621 163.137 171.58C161.701 170.571 161.647 169.194 162.208 167.93C161.032 168.605 159.65 168.997 158.545 168.501ZM176.378 172.506C176.404 172.476 176.431 172.463 176.458 172.444C175.117 171.251 175.639 169.078 176.61 167.319C175.02 168.718 172.778 169.824 171.087 169.209C170.167 170.873 168.432 174.02 171.164 174.932C173.161 175.6 175.18 173.89 176.378 172.506ZM163.531 178.381C165.865 178.682 167.97 176.422 169.611 175.048C168.386 173.755 168.847 171.904 169.718 170.39C168.148 171.712 166.182 172.754 164.266 172.141C163.489 172.847 162.605 173.553 162.065 174.462C161.114 176.065 161.507 178.119 163.531 178.381ZM161.315 178.287C160.198 176.987 160.551 175.45 161.416 174.121C159.701 175.045 157.642 175.526 156.217 174.435C156.214 174.439 156.217 174.441 156.214 174.443C155.251 175.86 152.638 179.382 155.598 180.402C157.518 181.062 159.715 179.223 161.315 178.287ZM152.22 185.735C152.305 185.693 152.381 185.688 152.452 185.699C152.441 185.684 152.429 185.676 152.418 185.661C151.637 184.629 151.794 183.42 152.396 182.401C151.143 182.918 149.778 182.973 148.755 181.952C148.525 182.077 148.269 182.208 147.998 182.337C146.903 183.476 145.551 184.934 147.017 186.315C148.517 187.73 150.733 186.483 152.22 185.735ZM141.581 182.837C140.576 183.414 139.339 183.854 138.707 184.89C137.83 186.33 138.737 187.739 140.345 187.738C142.298 187.735 144.097 186.677 146.005 186.481C145.991 186.465 145.978 186.453 145.967 186.434C145.252 185.295 145.557 184.027 146.302 183.026C144.65 183.572 142.816 183.776 141.581 182.837ZM150.703 176.872C149.724 178.079 147.921 180.062 149.385 181.387C150.919 182.779 152.787 181.282 154.161 180.392C152.827 178.894 153.661 176.832 154.862 175.353C153.59 176.23 152.003 177.048 150.703 176.872ZM154.708 180.857C154.648 180.918 154.579 180.98 154.513 181.039C153.375 182.256 151.637 183.932 153.356 185.344C154.932 186.638 157.692 185.083 159.294 184.355C158.275 183.189 158.578 181.744 159.369 180.502C157.804 181.312 155.969 181.711 154.708 180.857ZM172.118 157.338C171.693 158.036 171.266 158.739 171.244 159.589C171.198 161.253 172.643 162.048 174.115 161.732C175.957 161.335 177.222 160.002 178.253 158.529C177.354 157.762 177.073 156.55 177.443 155.494C175.903 156.756 173.835 158.035 172.118 157.338ZM171.418 149.038C169.707 150.67 167.412 151.752 165.617 150.192C165.126 150.977 164.51 151.806 164.456 152.752C164.413 153.53 165.234 154.409 165.954 154.632C166.317 154.745 166.97 154.553 167.341 154.453C169.106 153.989 170.533 152.613 171.816 151.374C171.252 150.694 171.193 149.864 171.418 149.038ZM199.325 162.38C199.102 162.97 198.993 163.589 199.441 164.085C200.399 165.149 202.542 163.829 203.554 163.114C203.43 162.903 203.324 162.663 203.269 162.361C203.091 161.365 203.459 160.368 204.096 159.489C203.127 159.964 202.121 160.213 201.191 160.005C200.599 160.747 199.977 161.539 199.325 162.38ZM206.103 153.771C205.18 155.061 203.71 156.85 201.867 159.155C202.186 159.157 202.524 159.106 202.874 158.998C204.469 158.506 205.867 157.325 207.219 156.364C206.46 155.449 206.466 154.354 206.852 153.309C206.609 153.477 206.357 153.628 206.103 153.771ZM201.357 159.089C202.723 157.484 204.036 155.839 205.299 154.162C204.084 154.677 202.787 154.852 201.497 154.367C201.381 154.324 201.276 154.275 201.174 154.227C201.171 154.229 201.171 154.231 201.171 154.232C200.968 154.663 200.689 155.1 200.361 155.528C200.025 156.196 199.789 156.897 199.997 157.66C200.221 158.488 200.722 158.933 201.357 159.089ZM196.005 157.813C197.992 156.962 199.149 155.32 200.701 153.952C199.279 152.946 199.487 151.165 200.186 149.612C198.253 151.714 195.474 153.825 192.792 152.848C192.645 152.794 192.508 152.732 192.378 152.666C192.373 152.672 192.373 152.682 192.366 152.687C192.251 152.815 192.127 152.945 192 153.072C191.612 153.88 191.161 154.794 191.18 155.668C191.245 158.49 194.167 158.602 196.005 157.813ZM186.678 160.713C188.457 160.213 189.523 158.888 190.907 157.811C190.961 157.768 191.015 157.751 191.067 157.746C190.368 156.731 190.471 155.325 190.983 154.004C189.312 155.376 187.151 156.448 185.081 155.916C185.032 155.904 184.994 155.884 184.948 155.87C184.94 155.949 184.911 156.03 184.831 156.1C184.7 156.218 184.565 156.348 184.428 156.482C184.152 157.174 183.853 157.88 183.823 158.626C183.764 160.272 185.21 161.129 186.678 160.713ZM181.256 158.191C182.444 157.675 183.314 156.418 184.293 155.595C183.175 154.966 182.953 153.808 183.191 152.617C181.999 153.906 180.506 154.845 178.711 154.359C178.705 154.37 178.698 154.382 178.689 154.391C178.683 154.432 178.668 154.474 178.635 154.513C176.843 156.526 178.792 159.261 181.256 158.191ZM184.913 150.258C184.905 150.307 184.889 150.357 184.857 150.405C184.749 150.577 184.633 150.749 184.514 150.923C183.988 152.07 183.418 153.425 184.252 154.572C184.827 155.366 186.295 155.271 187.116 155.085C188.89 154.688 190.473 153.497 191.718 152.212C190.349 150.975 190.619 148.756 191.374 146.928C189.65 148.801 187.282 150.695 184.913 150.258ZM178.49 148.191C177.6 150.084 176.033 153.193 179.185 153.636C181.548 153.966 183.028 151.776 184.151 150.041C182.197 149.261 182.347 147.344 182.965 145.568C181.74 147.003 180.061 148.52 178.49 148.191ZM172.388 151.898C172.372 151.887 172.356 151.872 172.341 151.86C171.817 152.597 171.239 153.292 171.127 154.224C170.938 155.797 172.145 157.071 173.771 156.747C175.412 156.421 176.648 155.018 178.019 154.105C176.459 153.363 176.315 151.976 176.72 150.578C175.508 151.904 173.775 152.842 172.388 151.898ZM178.883 158.942C178.757 159.182 178.602 159.427 178.429 159.668C178.061 160.369 177.799 161.107 177.739 161.926C177.637 163.31 178.064 165.253 179.915 164.911C182.1 164.508 183.023 162.768 184.419 161.356C182.94 160.546 183.007 158.776 183.59 157.297C182.256 158.575 180.69 159.816 178.883 158.942ZM194.547 159.087C194.545 159.125 194.536 159.164 194.518 159.203C193.93 160.415 195.136 161.144 196.101 161.187C196.578 161.209 197.047 161.102 197.503 160.976C198.518 160.696 199.422 160.222 200.259 159.614C199.216 158.933 198.998 157.843 199.236 156.758C197.911 157.984 196.197 158.932 194.547 159.087ZM207.927 156.978C207.922 156.984 207.921 156.993 207.912 156.996C206.274 157.971 204.682 159.371 204.138 161.28C203.257 164.384 207.667 162.882 209.451 162.365C209.367 162.111 209.308 161.829 209.281 161.516C209.151 160.044 209.947 158.463 211.129 157.303C209.98 157.568 208.838 157.552 207.927 156.978ZM215.987 163.25C215.966 163.142 215.936 163.034 215.925 162.928C215.671 160.46 217.288 158.232 219.525 157.486C217.67 157.665 215.788 157.658 214.859 155.932C212.741 156.666 210.54 158.349 210.171 160.717C209.623 164.243 213.844 163.737 215.987 163.25ZM213.714 164.415C212.125 164.533 210.503 164.215 209.73 162.959C209.374 163.098 208.938 163.265 208.466 163.428C207.381 164.353 206.191 165.176 205.948 166.722C205.726 168.14 206.458 169.382 207.976 169.497C208.672 169.549 209.347 169.345 210.042 169.405C210.063 169.408 210.076 169.424 210.093 169.429C210.136 167.475 211.839 165.51 213.714 164.415ZM215.634 172.087C215.63 171.847 215.645 171.596 215.689 171.336C216.017 169.453 217.431 167.682 219.226 166.957C217.853 166.614 216.673 165.269 216.171 163.907C215.96 163.98 215.731 164.048 215.495 164.11C213.966 165.085 212.506 165.977 211.532 167.618C210.641 169.119 210.741 170.954 212.463 171.788C213.449 172.264 214.379 172.149 215.441 172.043C215.512 172.036 215.577 172.055 215.634 172.087ZM213.618 172.932C211.958 172.794 210.382 171.741 210.125 169.999C210.093 170.013 210.059 170.024 210.027 170.039C208.425 171.028 206.353 172.081 206.574 174.294C206.79 176.443 208.97 176.458 210.646 176.491C210.768 174.856 212.085 173.542 213.618 172.932ZM216.074 179.757C216.148 178.157 217.472 176.343 219.075 175.886C217.466 175.429 216.072 174.342 215.723 172.776C215.707 172.824 215.677 172.867 215.618 172.881C213.8 173.35 211.07 174.759 211.448 177.09C211.81 179.324 214.363 179.34 216.074 179.757ZM210.87 184.051C211.294 182.196 213.185 180.883 215.008 180.375C213.071 180.296 210.943 179.164 210.654 177.194C210.533 177.225 210.409 177.252 210.285 177.272C208.252 177.926 205.573 179.315 206.502 181.957C207.197 183.924 209.224 183.663 210.87 184.051ZM206.431 188.259C206.407 186.677 207.467 185.213 208.877 184.594C207.408 184.318 206.076 183.372 205.699 181.933C203.951 182.516 201.395 183.366 201.905 185.768C202.161 186.966 203.208 187.749 204.334 188.032C205.038 188.21 205.732 188.113 206.431 188.259ZM202.594 191.392C202.708 190.364 203.323 189.438 204.171 188.9C202.93 188.58 201.8 187.624 201.315 186.475C201.3 186.483 201.294 186.496 201.273 186.502C200.364 186.703 199.481 186.944 198.842 187.67C198.164 188.441 197.938 189.63 198.687 190.454C199.595 191.458 201.225 191.381 202.46 191.366C202.512 191.366 202.555 191.378 202.594 191.392ZM198.125 195.713C198.195 195.694 198.259 195.705 198.313 195.726C198.422 194.058 199.641 192.892 201.071 192.176C199.816 192.085 198.526 191.705 197.859 190.697C197.845 190.697 197.827 190.698 197.811 190.698C196.03 191.179 193.305 192.085 192.938 194.101C192.382 197.147 196.603 196.15 198.125 195.713ZM193.705 200.591C193.661 199.237 194.4 197.924 195.486 197.066C194.165 197.152 192.9 196.83 192.334 195.691C191.944 195.803 191.501 195.88 191.038 195.912C190.087 196.474 189.295 197.282 188.987 198.395C188.242 201.097 192.031 200.908 193.705 200.591ZM183.8 198.838C183.757 198.851 183.708 198.868 183.664 198.88C182.764 199.486 181.95 200.208 181.402 201.163C180.821 202.178 181.022 203.219 182.256 203.468C182.903 203.597 183.552 203.437 184.194 203.337C183.977 201.979 185.28 200.649 186.678 199.952C185.511 199.936 184.33 199.812 183.8 198.838ZM187.335 194.49C185.985 195.27 183.804 196.188 184.347 198.12C184.766 199.608 186.851 199.051 188.066 199.258C188.064 199.236 188.06 199.218 188.059 199.197C187.979 197.88 188.739 196.683 189.801 195.877C188.748 195.744 187.785 195.319 187.335 194.49ZM191.712 189.697C190.216 190.011 188.868 190.658 188.167 192.134C187.566 193.4 187.982 194.641 189.333 195.046C189.957 195.232 190.596 195.181 191.231 195.097C191.509 194.999 191.793 194.925 192.075 194.881C192.064 194.846 192.053 194.81 192.048 194.768C191.826 193.049 193.242 191.771 194.891 191.011C193.509 191.122 192.199 190.967 191.712 189.697ZM196.783 185.298C196.77 185.303 196.764 185.312 196.75 185.316C196.7 185.332 196.645 185.347 196.592 185.363C195.016 186.067 191.59 186.572 192.354 189.153C192.938 191.134 195.803 190.092 197.509 189.945C197.132 188.555 197.849 187.356 198.942 186.699C198.028 186.568 197.204 186.125 196.783 185.298ZM202.882 181.231C203.787 181.559 204.695 181.409 205.596 181.172C205.554 179.335 206.809 177.86 208.429 177.212C207.134 176.913 206.01 176.059 205.763 174.666C205.751 174.672 205.74 174.682 205.725 174.688C205.718 174.689 205.71 174.692 205.703 174.693C205.791 174.779 205.797 174.963 205.667 175.01C203.96 175.65 201.713 176.055 201.133 178.1C200.761 179.411 201.643 180.78 202.882 181.231ZM200.637 180.155C200.61 180.172 200.585 180.192 200.55 180.203C200.376 180.263 200.193 180.312 200.005 180.355C198.701 181.123 197.482 182.192 197.332 183.797C197.132 185.92 199.394 186.077 200.912 185.78C200.986 185.765 201.052 185.78 201.111 185.807C201.098 185.726 201.074 185.645 201.067 185.563C200.932 183.992 201.924 182.756 203.235 182.076C202.114 181.852 201.117 181.199 200.637 180.155ZM209.66 150.721C209.655 150.728 209.653 150.737 209.645 150.744C209.219 151.247 208.721 151.77 208.174 152.262C207.281 153.876 206.632 155.876 208.839 156.518C210.664 157.05 212.909 155.888 214.514 155.093C214.103 153.59 214.578 152.16 215.488 151.007C213.556 151.736 211.484 151.979 209.66 150.721ZM201.551 147.997C201.538 147.993 201.53 147.99 201.519 147.987C201.506 148.011 201.503 148.034 201.484 148.06C201.462 148.087 201.438 148.117 201.418 148.144C201.445 148.203 201.452 148.273 201.412 148.349C200.844 149.461 200.143 150.675 200.469 151.958C200.952 153.841 202.917 154.015 204.539 153.514C206.405 152.941 207.663 151.493 209.072 150.237C207.701 148.872 207.787 146.927 208.591 145.24C206.787 147.144 204.144 148.597 201.551 147.997ZM192.983 145.542C192.872 145.498 192.778 145.444 192.675 145.394C192.674 145.395 192.672 145.396 192.672 145.399C192.243 146.484 191.687 147.62 191.605 148.797C191.555 149.509 191.625 150.891 192.1 151.425C192.685 152.081 194.019 152.303 194.848 152.137C197.181 151.672 199.275 149.504 200.674 147.694C198.836 146.804 199.141 144.827 199.827 143.015C198.081 144.889 195.485 146.533 192.983 145.542ZM185.413 144.283C184.962 144.209 184.571 144.089 184.231 143.931C184.221 143.944 184.22 143.959 184.209 143.975C184.152 144.052 184.09 144.137 184.025 144.224C183.788 144.889 183.451 145.547 183.337 146.226C182.78 149.59 185.28 150.027 187.404 148.979C189.196 148.094 190.735 146.512 191.956 144.952C190.984 144.176 190.662 143.062 190.844 141.899C189.538 143.537 187.588 144.639 185.413 144.283ZM178.245 142.676C178.296 142.788 178.299 142.919 178.192 143.048C178.1 143.162 178.007 143.278 177.91 143.392C177.652 143.985 177.4 144.591 177.335 145.229C177.179 146.773 178.29 147.636 179.795 147.171C181.252 146.719 182.65 144.668 183.483 143.51C183.492 143.495 183.505 143.49 183.515 143.479C182.587 142.702 182.339 141.51 182.711 140.289C181.452 141.416 179.804 142.576 178.245 142.676ZM173.577 146.219C173.573 146.236 173.577 146.249 173.568 146.265C173.46 146.427 173.338 146.609 173.209 146.804C173.102 146.986 172.983 147.171 172.854 147.358C172.062 148.654 171.359 150.297 172.812 151.245C174.898 152.601 176.637 149.034 177.618 147.818C177.621 147.813 177.627 147.812 177.632 147.806C176.546 147.048 176.512 145.751 176.884 144.533C175.964 145.444 174.889 146.165 173.577 146.219ZM166.1 155.37C165.641 156.169 165.054 157.004 165.004 157.954C164.926 159.413 166.162 160.147 167.439 159.726C168.892 159.244 170.199 157.862 171.427 156.926C170.24 155.965 170.237 154.447 170.853 153.193C169.469 154.367 167.731 155.51 166.1 155.37ZM172.299 162.49C172.229 162.468 172.167 162.437 172.102 162.41C172.12 162.527 172.091 162.651 171.978 162.758C171.854 162.872 171.715 162.998 171.57 163.13C170.486 165.127 169.112 168.512 172.356 168.436C174.501 168.387 176.123 166.366 177.631 165.057C176.706 164.083 176.729 162.468 177.189 161.028C175.795 162.252 173.937 163.06 172.299 162.49ZM164.16 166.352C164.146 166.377 164.135 166.404 164.114 166.428C163.926 166.633 163.699 166.849 163.447 167.061C162.565 168.657 162.129 170.53 164.493 171.27C166.783 171.988 168.692 170.138 170.278 168.734C169.136 167.732 169.32 165.969 170.019 164.454C168.25 165.841 165.984 167.146 164.16 166.352ZM146.627 173.878C146.229 173.921 145.039 173.883 144.404 173.538C142.947 174.837 140.335 177.829 143.919 178.1C146.017 178.261 147.948 177.561 149.697 176.48C149.664 176.457 149.632 176.438 149.601 176.411C148.42 175.431 148.596 174.071 149.23 172.886C148.466 173.423 147.573 173.776 146.627 173.878ZM122.719 193.018C122.39 192.284 122.597 191.345 123.077 190.643C123.515 190.002 124.133 189.612 124.822 189.36C123.626 189.198 122.512 188.663 121.841 187.604C121.749 187.462 121.679 187.298 121.62 187.128C121.618 187.128 121.615 187.128 121.611 187.128C121.607 187.19 121.573 187.255 121.496 187.276C120.528 187.556 119.445 187.637 118.561 188.153C117.484 188.785 116.832 190.01 117.626 191.14C118.678 192.639 120.947 192.396 122.52 192.876C122.613 192.905 122.669 192.957 122.707 193.017C122.712 193.018 122.716 193.018 122.719 193.018ZM142.507 191.275C141.838 190.032 142.248 188.993 143.095 188.218C142.294 188.396 141.494 188.511 140.785 188.572C139.794 188.658 138.691 188.5 138.035 187.696C137.084 188.091 135.555 188.5 135.207 189.589C134.695 191.198 136.068 192.126 137.537 192.144C138.541 192.154 139.54 191.857 140.537 191.648C141.177 191.416 141.849 191.285 142.507 191.275ZM150.479 190.961C149.4 191.64 148.212 192.215 147.3 193.122C146.724 193.694 146.28 194.384 146.099 195.181C146.033 195.475 146.028 195.767 146.029 196.058C148.077 195.922 150.126 195.64 152.19 195.173C152.661 195.065 153.127 194.939 153.594 194.819C153.772 193.579 154.376 192.251 155.285 191.275C153.557 191.861 151.607 192.134 150.479 190.961ZM159.815 184.834C159.79 184.866 159.765 184.896 159.727 184.922C159.689 184.949 159.642 184.977 159.601 185.004C159.593 185.025 159.593 185.05 159.577 185.067C158.26 186.593 156.428 189.133 159.391 190.256C161.423 191.026 163.381 189.63 164.989 188.491C164.551 187.966 164.245 187.311 164.138 186.604C164.006 185.731 164.195 184.868 164.589 184.094C163.026 185.148 161.318 185.946 159.815 184.834ZM182.877 176.824C181.256 175.615 181.517 173.005 182.484 170.916C180.918 172.419 178.908 173.815 177.069 172.862C177.064 172.921 177.052 172.981 177.014 173.037C176.805 173.371 176.531 173.704 176.215 174.022C175.505 175.585 174.953 177.385 176.712 178.443C178.844 179.728 181.205 178.104 182.877 176.824ZM198.956 173.162C198.93 173.101 198.896 173.051 198.871 172.987C198.472 171.869 198.88 170.823 199.624 169.976C198.78 170.159 197.93 170.187 197.163 169.958C196.684 170.7 196.043 171.351 195.309 171.853C195.011 172.189 194.725 172.56 194.71 172.998C194.682 173.889 195.722 173.834 196.348 173.727C197.225 173.58 198.094 173.381 198.956 173.162ZM199.848 173.183C201.138 175.132 203.705 174.433 205.591 174.076C205.637 174.067 205.678 174.068 205.716 174.076C205.708 172.491 206.776 171.195 208.131 170.379C207.053 170.31 206.045 169.804 205.505 168.9C204.582 169.335 203.481 169.157 202.654 168.578C202.669 168.695 202.62 168.815 202.48 168.891C202.082 169.1 201.64 169.308 201.176 169.494C199.939 170.463 198.917 171.773 199.848 173.183ZM190.138 184.98C190.135 184.98 190.131 184.98 190.127 184.98C188.837 185.504 187.337 185.99 187.226 187.583C187.055 190.029 189.995 188.948 191.533 188.917C191.407 187.589 192.145 186.566 193.193 185.9C192.118 185.877 191.141 185.58 190.554 184.797C190.524 184.812 190.492 184.824 190.461 184.839C190.391 184.926 190.284 184.985 190.138 184.98ZM174.213 211.877C174.31 211.769 174.407 211.663 174.509 211.559C174.264 210.427 174.615 209.211 175.418 208.44C174.662 208.369 173.962 207.969 173.5 207.359C172.157 207.814 170.831 208.713 170.766 210.27C170.695 211.974 172.499 213.036 173.867 211.951C173.986 211.857 174.107 211.845 174.213 211.877ZM184.657 208.896C184.652 208.85 184.647 208.806 184.66 208.753C185.002 207.428 186.143 206.269 187.466 205.627C186.214 205.486 184.878 204.824 184.379 203.872C183.379 204.488 182.368 205.432 182.305 206.668C182.24 207.914 183.281 208.973 184.513 208.888C184.556 208.885 184.589 208.896 184.625 208.908C184.635 208.903 184.646 208.899 184.657 208.896ZM183.196 209.405C183.183 209.4 183.173 209.398 183.159 209.393C183.14 209.41 183.116 209.427 183.089 209.441C183.125 209.431 183.159 209.417 183.196 209.405ZM159.499 163.758C159.496 163.759 159.495 163.763 159.493 163.767C159.053 164.396 158.464 164.988 158.22 165.734C157.908 166.694 158.295 167.775 159.431 167.838C160.925 167.919 162.424 166.876 163.532 165.972C162.373 165.053 162.527 163.573 163.187 162.268C162.046 163.098 160.747 163.781 159.499 163.758ZM150.927 167.174C150.531 167.893 150.204 168.664 150.431 169.463C150.833 170.884 152.441 170.859 153.653 170.511C155.291 170.04 156.607 169.15 157.844 168.034C157.105 167.313 157.143 166.332 157.529 165.419C155.869 166.547 153.58 167.105 152.074 165.958C151.697 166.366 151.313 166.771 150.927 167.174ZM144.695 173.004C145.213 173.41 147.535 172.927 147.809 172.815C148.813 172.411 149.573 171.728 150.156 170.83C149.535 170.16 149.535 169.22 149.824 168.304C148.185 169.949 146.474 171.521 144.695 173.004ZM103.281 182.794C102.446 182.964 101.921 183.622 102.09 184.538C102.228 185.285 102.782 185.8 103.376 186.229C104.324 186.915 105.427 187.269 106.503 187.685C106.955 186.993 107.761 186.642 108.657 186.488C107.788 185.894 107.153 184.907 107.129 183.916C105.827 183.609 104.544 183.233 103.281 182.794ZM96.962 179.989C97.0015 180.014 97.0411 180.037 97.0771 180.06C97.0789 180.058 97.0808 180.054 97.0825 180.053C97.043 180.031 97.0015 180.011 96.962 179.989ZM83.9879 172.745C84.4863 172.21 85.1484 171.869 85.8789 171.847C84.785 170.816 83.7217 169.744 82.6943 168.63C80.9959 169.09 83.3798 171.795 83.9879 172.745ZM79.3497 179.037C80.7404 178.872 82.034 179.531 83.0704 180.522C83.0272 179.761 83.2845 179.04 84.0221 178.563C83.2413 177.575 82.473 176.403 81.2442 175.952C80.0963 175.531 78.9287 175.902 78.2648 176.863C78.6156 177.593 78.9772 178.319 79.3497 179.037ZM88.3132 190.002C89.454 190.001 90.5676 190.32 91.6309 190.758C90.7025 189.716 90.2707 188.245 90.7349 186.863C90.7583 186.793 90.7943 186.728 90.823 186.66C90.51 186.375 90.1304 186.05 89.7435 185.693C88.9015 185.042 88.0523 184.399 86.9765 184.197C85.3859 183.896 83.9484 184.824 83.6928 186.433C83.6839 186.492 83.6551 186.539 83.6209 186.583C84.4252 187.912 85.2384 189.236 86.0535 190.561C86.559 190.071 87.6745 190.002 88.3132 190.002ZM102.854 195.219C103.041 195.215 103.225 195.199 103.41 195.192C101.32 194.466 99.2614 192.559 99.4125 190.323C99.1282 190.238 98.8115 190.132 98.4805 190.005C97.3524 190.056 96.1973 190.186 95.2348 190.795C93.9249 191.625 93.3996 193.448 94.3945 194.713C94.4197 194.745 94.4323 194.778 94.4467 194.811C97.2354 195.128 100.046 195.27 102.854 195.219ZM217.785 191.667C216.435 191.144 215.538 189.751 215.542 188.219C214.296 189.002 212.986 189.63 212.332 191.063C211.917 191.971 211.857 193 212.419 193.865C212.716 194.323 213.105 194.568 213.53 194.825C214.971 193.822 216.391 192.775 217.785 191.667ZM177.701 273.063C177.361 272.448 177.049 271.832 176.755 271.217C176.74 271.195 176.718 271.19 176.704 271.164C176.362 270.523 176.092 269.863 175.87 269.189C173.009 262.032 173.07 254.835 175.157 248.118C175.138 248.102 175.117 248.095 175.109 248.068C172.359 240.528 173.959 232.88 177.977 226.483C177.9 222.471 179.67 218.928 182.333 216.018C182.514 214.121 183.205 212.352 184.231 210.767C175.972 213.608 167.516 215.808 159.318 217.654C159.134 217.696 159.014 217.603 158.96 217.474C150.841 223.509 140.729 226.694 130.816 224.938C130.619 224.902 130.573 224.669 130.683 224.565C123.057 226.255 113.412 225.949 107.709 220.129C107.64 220.094 107.572 220.064 107.504 220.029C107.35 219.948 107.298 219.813 107.307 219.678C107.102 219.451 106.888 219.235 106.696 218.992C96.388 217.314 86.658 211.872 80.2438 203.172C80.2258 203.153 80.2133 203.132 80.2006 203.111C79.7994 202.565 79.4108 202.009 79.0366 201.437C79.0042 201.388 78.9988 201.34 79.0023 201.291C69.4667 196.24 60.5911 188.57 56.6131 178.573C56.3523 177.915 57.09 177.374 57.619 177.863C65.7711 185.419 75.6955 190.763 86.487 193.394C82.4082 187.236 78.468 180.848 75.6487 174.006C75.1395 172.772 74.6411 171.48 74.1788 170.152C63.5005 159.218 51.624 149.535 41.347 138.2C23.8767 118.93 10.0643 95.3916 7.2396 69.1304C4.80889 46.5469 11.3364 23.1196 27.6353 6.86923C28.0024 6.50219 28.6482 7.04016 28.3334 7.45577C13.8085 26.6586 30.2927 50.8237 34.4452 70.5716C34.8411 72.4518 35.1812 74.3499 35.4888 76.2625C35.5338 76.3038 35.5752 76.347 35.6201 76.3866C35.6832 76.4082 35.746 76.4424 35.8 76.5089C35.8451 76.5665 35.8864 76.6277 35.9332 76.6853C42.3293 82.7468 47.9752 90.1397 49.5783 98.9557C49.7169 99.7185 49.832 100.483 49.94 101.25C50.4437 97.1925 52.1907 93.2198 55.2332 90.5517C60.226 86.1706 67.2932 85.0606 71.3917 79.5892C72.6944 76.0393 73.9322 72.4698 74.8894 68.8084C77.4623 58.9505 77.3795 48.6124 75.2402 38.6845C75.0891 37.9845 75.9978 37.7453 76.3504 38.2797C88.2268 56.2752 91.8054 78.1247 87.966 99.1734C86.0714 109.56 82.6403 119.494 79.785 129.628C76.5105 141.251 74.7868 154.005 81.0696 164.968C81.0733 164.973 81.0733 164.979 81.0769 164.987C85.3751 170.163 90.152 174.862 96.1433 178.354C106.881 184.61 119.038 185.208 130.479 180.402C138.848 176.886 145.877 170.967 151.938 164.265C148.575 165.195 144.825 164.811 141.899 162.847C141.838 162.808 141.812 162.747 141.805 162.685C137.5 162.906 130.54 161.543 127.539 158.275L127.541 158.274C126.485 158.051 125.434 157.757 124.394 157.382C116.197 154.418 109.922 145.879 112.018 137.035C107.96 131.985 105.801 125.508 106.679 118.934C106.744 118.452 107.399 118.387 107.532 118.866C111.496 133.101 125.663 141.152 139.935 138.644C151.814 136.558 164.844 129.094 176.758 134.96C176.828 134.905 176.895 134.846 176.965 134.79C177.134 134.659 176.837 132.511 177.942 131.566C179.788 129.986 182.538 131.223 183.847 132.854C183.877 132.892 183.888 132.937 183.893 132.98C188.357 130.282 192.975 127.892 197.688 125.706C197.654 125.613 197.657 124.033 197.938 123.601C198.415 122.863 199.427 122.334 200.256 122.716C200.763 120.926 202.383 119.458 204.115 118.796C205.693 118.193 208.104 117.901 209.698 118.804C210.555 118.396 211.615 118.304 212.473 118.747C212.683 118.855 212.954 119.06 213.174 119.303C213.915 119.028 221.104 116.359 224.054 115.537C222.006 114.303 219.544 114.319 217.342 113.301C215.959 112.658 214.684 111.755 213.618 110.661C211.101 108.079 209.837 104.477 210.144 100.89C210.806 93.1533 219.01 86.7662 226.224 85.4581C226.486 85.4095 226.556 85.7604 226.31 85.8612C220.548 88.2307 213.956 96.0626 214.929 103.736C215.728 110.024 220.579 109.4 224.974 111.613C226.301 112.281 227.498 113.162 228.255 114.378C228.314 114.45 229.124 114.485 229.465 114.454C229.468 114.45 229.469 114.449 229.47 114.445C237.005 107.018 255.484 123.216 247.477 130.339C247.38 130.425 247.274 130.454 247.173 130.449C247.2 131.095 247.193 131.75 247.177 132.408C250.294 133.428 251.816 137.187 252.918 140.312C254.849 145.788 258.298 148.511 264.267 147.608C268.314 146.997 271.626 145.438 275.525 142.339C271.925 147.234 265.78 150.753 259.643 149.701C256.921 149.234 254.72 147.976 253.121 145.709C251 142.706 250.14 138.782 247.293 136.652C247.292 136.66 247.291 136.667 247.288 136.674C247.255 136.635 247.215 136.602 247.18 136.565C247.088 136.498 246.995 136.435 246.899 136.374C246.828 137.011 246.751 137.648 246.656 138.286C245.833 143.916 244.415 149.503 242.429 154.877C242.645 155.007 242.838 155.161 242.948 155.294C243.375 155.807 243.697 157.085 243.097 157.581C244.669 159.477 245.403 162.171 244.397 164.477C243.4 166.763 241.14 167.985 238.776 167.935C238.752 168.617 238.082 169.127 237.517 169.394C236.978 169.65 235.962 169.915 235.535 169.348C235.487 169.289 235.467 169.221 235.459 169.155C235.446 169.143 235.428 169.135 235.416 169.123C232.756 173.313 229.667 177.223 226.137 180.726C226.164 180.84 227.668 188.889 224.546 189.65C223.868 189.813 222.965 189.665 222.194 189.337C222.167 189.381 220.698 190.746 219.98 191.366C224.996 205.999 217.304 221.473 207.501 232.149C201.627 238.545 194.445 243.384 188.338 249.493C182.058 255.772 178.644 264.065 178.393 272.912C178.382 273.284 177.872 273.37 177.701 273.063Z" fill="white"/>
<path d="M54.5094 256.522C51.8286 256.356 49.2773 256.125 46.7279 256.055C46.7512 253.533 46.735 251.011 46.8196 248.449C46.825 248.299 46.5912 248.299 46.5875 248.449C46.5191 251.014 46.3537 253.532 46.2259 256.048C43.8041 256.001 41.3771 256.104 38.833 256.561C38.7809 256.571 38.7971 256.647 38.8456 256.649C41.2997 256.804 43.7484 256.77 46.1918 256.73C46.0657 259.45 46.0028 262.175 46.1864 264.961C46.1881 264.999 46.2367 264.998 46.2403 264.961C46.5875 262.185 46.6864 259.454 46.7225 256.723C49.3205 256.68 51.915 256.642 54.5094 256.83C54.7073 256.843 54.7073 256.534 54.5094 256.522Z" fill="white"/>
<path d="M267.187 230.685C264.506 230.519 261.955 230.291 259.405 230.219C259.428 227.699 259.412 225.174 259.497 222.612C259.503 222.463 259.269 222.463 259.265 222.612C259.196 225.178 259.032 227.695 258.904 230.211C256.481 230.166 254.055 230.268 251.51 230.724C251.459 230.734 251.475 230.811 251.524 230.813C253.977 230.967 256.426 230.935 258.87 230.894C258.743 233.615 258.681 236.338 258.862 239.126C258.866 239.163 258.914 239.161 258.918 239.126C259.265 236.348 259.364 233.617 259.4 230.886C261.998 230.843 264.593 230.808 267.187 230.993C267.383 231.008 267.384 230.697 267.187 230.685Z" fill="white"/>
<path d="M127.716 49.7724C125.035 49.6068 122.484 49.3784 119.934 49.3064C119.958 46.7858 119.942 44.2614 120.026 41.6993C120.032 41.5501 119.798 41.5501 119.794 41.6993C119.726 44.2651 119.56 46.7821 119.432 49.2991C117.011 49.2525 114.584 49.355 112.04 49.8119C111.987 49.821 112.004 49.8983 112.052 49.9002C114.506 50.0548 116.955 50.0224 119.398 49.9811C119.272 52.7015 119.209 55.4254 119.393 58.2125C119.395 58.2502 119.443 58.2483 119.447 58.2125C119.794 55.4362 119.893 52.705 119.929 49.9738C122.527 49.9307 125.121 49.8948 127.716 50.08C127.912 50.0945 127.914 49.7849 127.716 49.7724Z" fill="white"/>
<path d="M27.7991 155.379C26.5505 155.302 25.3631 155.196 24.1756 155.162C24.1864 153.988 24.1792 152.811 24.2188 151.618C24.2205 151.551 24.1126 151.551 24.1108 151.618C24.0784 152.814 24.0011 153.987 23.9417 155.158C22.8136 155.136 21.6837 155.185 20.4998 155.397C20.4746 155.402 20.4819 155.437 20.5052 155.439C21.6478 155.51 22.7867 155.494 23.9255 155.476C23.8662 156.743 23.8373 158.012 23.9219 159.31C23.9237 159.326 23.9471 159.326 23.9489 159.31C24.1091 158.017 24.1558 156.745 24.1719 155.472C25.3829 155.453 26.5901 155.435 27.7991 155.524C27.8909 155.529 27.8909 155.385 27.7991 155.379Z" fill="white"/>
<path d="M270.958 49.848C269.71 49.7706 268.522 49.6644 267.335 49.6303C267.345 48.4571 267.339 47.2805 267.378 46.0876C267.379 46.0193 267.271 46.0193 267.27 46.0876C267.237 47.2823 267.16 48.4554 267.101 49.6284C265.973 49.6051 264.842 49.6536 263.659 49.8659C263.633 49.8713 263.641 49.9073 263.664 49.9073C264.807 49.9792 265.947 49.9649 267.085 49.9451C267.026 51.2118 266.996 52.4802 267.081 53.7792C267.082 53.7953 267.107 53.7953 267.108 53.7792C267.268 52.4856 267.314 51.2135 267.331 49.9415C268.542 49.9218 269.749 49.9037 270.958 49.9919C271.049 49.9973 271.049 49.8534 270.958 49.848Z" fill="white"/>
</svg>
