<?xml version="1.0" encoding="UTF-8" standalone="no"?>
<!DOCTYPE svg PUBLIC "-//W3C//DTD SVG 1.1//EN" "http://www.w3.org/Graphics/SVG/1.1/DTD/svg11.dtd">
<!-- Created with Vectornator (http://vectornator.io/) -->
<svg height="100%" stroke-miterlimit="10" style="fill-rule:nonzero;clip-rule:evenodd;stroke-linecap:round;stroke-linejoin:round;" version="1.1" viewBox="0 0 166 159" width="100%" xml:space="preserve" xmlns="http://www.w3.org/2000/svg" xmlns:vectornator="http://vectornator.io" xmlns:xlink="http://www.w3.org/1999/xlink">
<defs/>
<g id="Calque-1" vectornator:layerName="Calque 1">
<g opacity="1">
<path d="M90.3551 1.02005L82.6911 11.508L75.0261 1.02005C75.0261 1.02005 28.3471 18.132 82.6911 72.782C137.035 18.132 90.3551 1.02005 90.3551 1.02005" fill="#d65c5c" fill-rule="nonzero" opacity="1" stroke="none" vectornator:layerName="path"/>
<path d="M82.1412 72.7823C82.1412 72.7823 81.9862 72.0903 81.7142 70.8793C81.5782 70.2733 81.4252 69.5383 81.2582 68.6953C81.0942 67.8513 80.8862 66.8993 80.7012 65.8613C80.3202 63.7853 79.8692 61.3633 79.4412 58.7673C79.0152 56.1723 78.6362 53.4043 78.2912 50.6363C78.1162 49.2513 77.8272 47.8673 77.5312 46.5043C77.2382 45.1423 76.9852 43.8013 76.9602 42.5033C76.9342 41.2063 77.0942 39.9513 77.3442 38.7613C77.5952 37.5723 77.9032 36.4483 78.2742 35.4093C78.6292 34.3713 79.0502 33.4203 79.4682 32.5763C79.8712 31.7333 80.3332 30.9973 80.7192 30.3923C81.1072 29.7863 81.4612 29.3103 81.7222 28.9863C81.9792 28.6613 82.1412 28.4893 82.1412 28.4893L83.2412 28.4893C83.2412 28.4893 83.4032 28.6613 83.6602 28.9863C83.9202 29.3103 84.2752 29.7863 84.6622 30.3923C85.0482 30.9973 85.5102 31.7333 85.9132 32.5763C86.3322 33.4203 86.7532 34.3713 87.1072 35.4093C87.4792 36.4483 87.7872 37.5723 88.0372 38.7613C88.2872 39.9513 88.4482 41.2063 88.4212 42.5033C88.3972 43.8013 88.1442 45.1423 87.8512 46.5043C87.5552 47.8673 87.2652 49.2513 87.0912 50.6363C86.7452 53.4043 86.3672 56.1723 85.9402 58.7673C85.5132 61.3633 85.0622 63.7853 84.6812 65.8613C84.4952 66.8993 84.2872 67.8513 84.1232 68.6953C83.9562 69.5383 83.8042 70.2733 83.6672 70.8793C83.3962 72.0903 83.2412 72.7823 83.2412 72.7823L82.1412 72.7823Z" fill="#f8f0e7" fill-rule="nonzero" opacity="1" stroke="none" vectornator:layerName="path"/>
<path d="M152.482 66.3637L161.036 56.5887C161.036 56.5887 134.113 14.7917 92.696 79.7867C157.923 120.839 164.394 71.5447 164.394 71.5447L152.482 66.3637Z" fill="#d65c5c" fill-rule="nonzero" opacity="1" stroke="none" vectornator:layerName="path"/>
<path d="M92.5748 79.255C92.5748 79.255 93.2158 78.951 94.3368 78.419C94.8968 78.152 95.5808 77.84 96.3668 77.492C97.1528 77.146 98.0348 76.733 99.0068 76.322C100.948 75.492 103.211 74.518 105.647 73.528C108.085 72.539 110.701 71.558 113.325 70.61C114.637 70.134 115.923 69.547 117.185 68.957C118.45 68.37 119.702 67.827 120.962 67.517C122.221 67.204 123.481 67.084 124.696 67.065C125.912 67.047 127.077 67.099 128.171 67.232C129.262 67.348 130.283 67.549 131.198 67.771C132.109 67.978 132.929 68.266 133.604 68.508C134.281 68.754 134.823 68.993 135.197 69.176C135.57 69.355 135.775 69.475 135.775 69.475L136.017 70.548C136.017 70.547 135.885 70.744 135.625 71.066C135.366 71.392 134.98 71.842 134.475 72.355C133.97 72.864 133.354 73.478 132.621 74.057C131.891 74.651 131.055 75.272 130.122 75.847C129.191 76.439 128.162 76.987 127.057 77.495C125.952 78.001 124.764 78.434 123.493 78.695C122.221 78.958 120.858 79.007 119.465 79.022C118.07 79.034 116.656 79.058 115.267 79.193C112.491 79.467 109.708 79.71 107.083 79.866C104.457 80.022 101.995 80.118 99.8858 80.205C98.8318 80.253 97.8578 80.26 96.9988 80.286C96.1388 80.31 95.3878 80.323 94.7678 80.324C93.5268 80.327 92.8168 80.328 92.8168 80.328L92.5748 79.255Z" fill="#f8f0e7" fill-rule="nonzero" opacity="1" stroke="none" vectornator:layerName="path"/>
<path d="M90.1949 92.7934C74.4059 168.229 122.872 157.141 122.872 157.141L123.583 144.171L135.723 148.789C135.723 148.789 165.54 109.005 90.1949 92.7934" fill="#d65c5c" fill-rule="nonzero" opacity="1" stroke="none" vectornator:layerName="path"/>
<path d="M90.6705 92.4859C90.6705 92.4859 91.1865 92.9729 92.0885 93.8259C92.5395 94.2519 93.0775 94.7759 93.6865 95.3829C94.2945 95.9899 94.9985 96.6629 95.7325 97.4199C97.2095 98.9289 98.9365 100.686 100.741 102.599C102.545 104.513 104.406 106.597 106.24 108.699C107.158 109.75 108.172 110.736 109.179 111.7C110.184 112.666 111.143 113.636 111.888 114.699C112.636 115.76 113.203 116.89 113.661 118.016C114.118 119.143 114.491 120.247 114.763 121.316C115.05 122.375 115.232 123.399 115.357 124.332C115.494 125.257 115.522 126.125 115.54 126.843C115.557 127.562 115.529 128.154 115.494 128.569C115.463 128.982 115.425 129.216 115.425 129.215L114.513 129.831C114.513 129.83 114.281 129.778 113.888 129.652C113.489 129.529 112.931 129.332 112.27 129.047C111.612 128.76 110.817 128.409 110.012 127.935C109.193 127.469 108.313 126.915 107.439 126.253C106.55 125.599 105.666 124.839 104.793 123.993C103.922 123.146 103.087 122.195 102.385 121.104C101.679 120.015 101.14 118.761 100.621 117.468C100.106 116.173 99.5715 114.863 98.9425 113.617C97.6825 111.129 96.4485 108.622 95.3525 106.231C94.2565 103.84 93.2755 101.58 92.4315 99.6449C92.0065 98.6799 91.6465 97.7749 91.3115 96.9839C90.9785 96.1909 90.6925 95.4959 90.4685 94.9179C90.0165 93.7609 89.7585 93.1009 89.7585 93.1009L90.6705 92.4859Z" fill="#f8f0e7" fill-rule="nonzero" opacity="1" stroke="none" vectornator:layerName="path"/>
<path d="M75.1886 92.7934C-0.15941 109.006 29.6586 148.789 29.6586 148.789L41.7986 144.171L42.5106 157.141C42.5106 157.141 90.9786 168.228 75.1886 92.7934" fill="#d65c5c" fill-rule="nonzero" opacity="1" stroke="none" vectornator:layerName="path"/>
<path d="M75.1261 93.0766C75.1261 93.0766 74.9031 93.7496 74.5121 94.9276C74.3181 95.5176 74.0701 96.2266 73.7791 97.0346C73.4861 97.8436 73.1741 98.7656 72.8001 99.7516C72.0581 101.728 71.1981 104.037 70.2291 106.483C69.2591 108.928 68.1601 111.496 67.0311 114.048C66.4691 115.325 66.0041 116.66 65.5571 117.981C65.1071 119.3 64.6341 120.58 63.9871 121.705C63.3421 122.831 62.5601 123.825 61.7331 124.716C60.9061 125.607 60.0631 126.413 59.2101 127.112C58.3731 127.819 57.5221 128.419 56.7291 128.927C55.9491 129.442 55.1741 129.835 54.5331 130.156C53.8881 130.475 53.3401 130.702 52.9491 130.845C52.5621 130.991 52.3341 131.056 52.3341 131.056L51.3911 130.49C51.3911 130.491 51.3411 130.259 51.2881 129.848C51.2301 129.436 51.1721 128.846 51.1511 128.127C51.1321 127.409 51.1141 126.541 51.2021 125.61C51.2771 124.671 51.4061 123.639 51.6371 122.567C51.8521 121.485 52.1671 120.362 52.5641 119.213C52.9611 118.065 53.4701 116.907 54.1601 115.807C54.8491 114.707 55.7561 113.688 56.7081 112.67C57.6631 111.655 58.6241 110.617 59.4851 109.519C61.2061 107.324 62.9551 105.144 64.6571 103.139C66.3591 101.133 67.9921 99.2876 69.3861 97.7036C70.0801 96.9096 70.7481 96.2006 71.3231 95.5616C71.8991 94.9236 72.4091 94.3716 72.8371 93.9226C73.6931 93.0236 74.1831 92.5106 74.1831 92.5106L75.1261 93.0766Z" fill="#f8f0e7" fill-rule="nonzero" opacity="1" stroke="none" vectornator:layerName="path"/>
<path d="M4.34481 56.5885L12.8998 66.3635L0.987809 71.5435C0.987809 71.5435 7.45781 120.838 72.6838 79.7865C31.2658 14.7915 4.34481 56.5885 4.34481 56.5885" fill="#d65c5c" fill-rule="nonzero" opacity="1" stroke="none" vectornator:layerName="path"/>
<path d="M72.5621 80.3399C72.5621 80.3399 71.8531 80.3379 70.6111 80.3349C69.9911 80.3339 69.2401 80.3199 68.3801 80.2949C67.5211 80.2689 66.5471 80.2599 65.4941 80.2119C63.3851 80.1229 60.9231 80.0269 58.2971 79.8679C55.6721 79.7099 52.8891 79.4649 50.1121 79.1889C48.7241 79.0529 47.3101 79.0279 45.9161 79.0159C44.5221 78.9989 43.1591 78.9489 41.8881 78.6859C40.6161 78.4239 39.4291 77.9899 38.3241 77.4829C37.2201 76.9739 36.1911 76.4249 35.2611 75.8329C34.3271 75.2569 33.4921 74.6359 32.7631 74.0419C32.0291 73.4619 31.4151 72.8479 30.9091 72.3379C30.4051 71.8249 30.0191 71.3749 29.7611 71.0479C29.5011 70.7259 29.3691 70.5289 29.3691 70.5289L29.6121 69.4569C29.6121 69.4569 29.8171 69.3379 30.1901 69.1589C30.5641 68.9759 31.1061 68.7359 31.7831 68.4919C32.4591 68.2509 33.2781 67.9619 34.1901 67.7559C35.1051 67.5349 36.1261 67.3349 37.2171 67.2189C38.3121 67.0869 39.4771 67.0359 40.6921 67.0549C41.9081 67.0739 43.1661 67.1959 44.4261 67.5089C45.6861 67.8199 46.9371 68.3639 48.2021 68.9509C49.4651 69.5419 50.7501 70.1309 52.0621 70.6079C54.6851 71.5579 57.3001 72.5399 59.7371 73.5309C62.1731 74.5229 64.4351 75.4989 66.3751 76.3299C67.3471 76.7409 68.2291 77.1539 69.0151 77.5019C69.8001 77.8509 70.4841 78.1629 71.0441 78.4299C72.1651 78.9629 72.8051 79.2679 72.8051 79.2679L72.5621 80.3399Z" fill="#f8f0e7" fill-rule="nonzero" opacity="1" stroke="none" vectornator:layerName="path"/>
<path d="M87.6392 83.2564C87.6392 80.5244 85.4232 78.3084 82.6912 78.3084C79.9582 78.3084 77.7422 80.5244 77.7422 83.2564C77.7422 85.9894 79.9582 88.2044 82.6912 88.2044C85.4232 88.2044 87.6392 85.9894 87.6392 83.2564" fill="#d65c5c" fill-rule="nonzero" opacity="1" stroke="none" vectornator:layerName="path"/>
</g>
</g>
</svg>
