<svg width="25" height="26" viewBox="0 0 25 26" fill="none" xmlns="http://www.w3.org/2000/svg">
<path d="M0.0976562 13.0898C0.0976562 20.8125 5.32422 25.5 12.5195 25.5C14.4648 25.5 16.3164 25.2305 17.4648 24.8555C18.2734 24.5977 18.5312 24.1758 18.5312 23.7422C18.5312 23.3086 18.1914 22.9805 17.7578 22.9805C17.6172 22.9805 17.4297 23.0039 17.207 23.0625C15.7773 23.4141 14.5469 23.6484 12.8945 23.6484C6.48438 23.6484 2.11328 19.7812 2.11328 13.1602C2.11328 6.82031 6.23828 2.40234 12.4492 2.40234C17.9453 2.40234 22.5391 5.78906 22.5391 11.8711C22.5391 15.4219 21.3438 17.8125 19.4102 17.8125C18.1211 17.8125 17.3945 17.0625 17.3945 15.7852V7.83984C17.3945 7.20703 17.043 6.82031 16.4453 6.82031C15.8594 6.82031 15.4961 7.20703 15.4961 7.83984V9.17578H15.3906C14.793 7.73438 13.3281 6.82031 11.582 6.82031C8.54688 6.82031 6.41406 9.41016 6.41406 13.125C6.41406 16.875 8.53516 19.4883 11.6289 19.4883C13.4453 19.4883 14.8516 18.5039 15.5312 16.8398H15.6367C15.8594 18.4922 17.2539 19.5 19.1055 19.5C22.375 19.5 24.4023 16.2891 24.4023 11.7891C24.4023 4.98047 19.3984 0.5625 12.4727 0.5625C5.19531 0.5625 0.0976562 5.54297 0.0976562 13.0898ZM11.9453 17.6367C9.84766 17.6367 8.51172 15.8906 8.51172 13.1133C8.51172 10.3828 9.85938 8.63672 11.957 8.63672C14.1133 8.63672 15.4727 10.3477 15.4727 13.0664C15.4727 15.8438 14.0781 17.6367 11.9453 17.6367Z" fill="black" fill-opacity="0.85"/>
</svg>
