<svg width="18" height="24" viewBox="0 0 18 24" fill="none" xmlns="http://www.w3.org/2000/svg">
<g clip-path="url(#clip0_150_463)">
<path d="M7.86801 23.5158C1.2318 13.6421 0 12.6287 0 9C0 4.02942 3.9261 0 8.76923 0C13.6124 0 17.5385 4.02942 17.5385 9C17.5385 12.6287 16.3067 13.6421 9.67045 23.5158C9.23496 24.1614 8.30346 24.1614 7.86801 23.5158ZM8.76923 12.75C10.7872 12.75 12.4231 11.0711 12.4231 9C12.4231 6.92892 10.7872 5.25 8.76923 5.25C6.75126 5.25 5.11538 6.92892 5.11538 9C5.11538 11.0711 6.75126 12.75 8.76923 12.75Z" fill="black" fill-opacity="0.85"/>
</g>
<defs>
<clipPath id="clip0_150_463">
<rect width="17.5385" height="24" fill="white"/>
</clipPath>
</defs>
</svg>
