<svg width="48" height="48" viewBox="0 0 48 48" fill="none" xmlns="http://www.w3.org/2000/svg">
<path fill-rule="evenodd" clip-rule="evenodd" d="M38.8809 9.10322C36.9394 7.16079 34.6329 5.62155 32.0941 4.57411C29.5554 3.52668 26.8345 2.99174 24.0881 3.0001C12.5625 3.0001 3.18 12.3357 3.17531 23.8126C3.17021 27.4671 4.13353 31.0577 5.96719 34.2188L3 45.0001L14.0859 42.106C17.1546 43.7684 20.5897 44.6385 24.0797 44.6373H24.0881C35.6128 44.6373 44.9944 35.3007 45 23.8248C45.007 21.0878 44.4696 18.3768 43.4191 15.8494C42.3686 13.3221 40.8259 11.0288 38.8809 9.10322ZM24.0881 41.1245H24.0806C20.9694 41.1254 17.9148 40.2928 15.2344 38.7132L14.5997 38.3382L8.02125 40.0557L9.77719 33.6723L9.36375 33.016C7.62411 30.2618 6.70242 27.0702 6.70594 23.8126C6.70594 14.2754 14.5069 6.51572 24.0947 6.51572C28.6941 6.50751 33.1083 8.32653 36.3666 11.5727C39.625 14.8189 41.4604 19.2264 41.4694 23.8257C41.4656 33.3638 33.6684 41.1245 24.0881 41.1245ZM33.6216 28.1692C33.0994 27.9085 30.5278 26.6504 30.0516 26.477C29.5753 26.3035 29.2238 26.2163 28.8759 26.7376C28.5281 27.2588 27.5259 28.4251 27.2212 28.7767C26.9166 29.1282 26.6119 29.1667 26.0897 28.906C25.5675 28.6454 23.8828 28.097 21.8869 26.3251C20.3334 24.946 19.2853 23.2435 18.9806 22.7232C18.6759 22.2029 18.9478 21.9207 19.2094 21.662C19.4447 21.4285 19.7316 21.0545 19.9931 20.7507C20.2547 20.447 20.3419 20.2295 20.5153 19.8826C20.6887 19.5357 20.6025 19.232 20.4722 18.9723C20.3419 18.7126 19.2966 16.1523 18.8616 15.1107C18.4369 14.0963 18.0066 14.2342 17.6859 14.2182C17.3812 14.2032 17.0297 14.1995 16.6838 14.1995C16.4193 14.2064 16.1591 14.2677 15.9194 14.3796C15.6797 14.4916 15.4657 14.6517 15.2906 14.8501C14.8116 15.3713 13.4616 16.6313 13.4616 19.1888C13.4616 21.7463 15.3366 24.2213 15.5953 24.5682C15.8541 24.9151 19.2797 30.1679 24.5212 32.4207C25.4946 32.8375 26.489 33.203 27.5006 33.5157C28.7522 33.9114 29.8913 33.856 30.7913 33.722C31.7953 33.5729 33.885 32.4639 34.3191 31.2488C34.7531 30.0338 34.7541 28.9932 34.6238 28.7767C34.4934 28.5601 34.1447 28.4289 33.6216 28.1692Z" fill="black" fill-opacity="0.85"/>
</svg>
